<?xml version="1.0" encoding="utf-8"?>
<!-- Generator: Adobe Illustrator 24.1.0, SVG Export Plug-In . SVG Version: 6.00 Build 0)  -->
<svg version="1.1" id="Layer_1" xmlns="http://www.w3.org/2000/svg" xmlns:xlink="http://www.w3.org/1999/xlink" x="0px" y="0px"
	 viewBox="0 0 26.3 22.7" style="enable-background:new 0 0 26.3 22.7;" xml:space="preserve">
<style type="text/css">
	.st0{fill:#FFFFFF;}
</style>
<g>
	<g>
		<path class="st0" d="M5.1,17.5c0,1.8,0.6,3.4,1.7,4.6c-0.5,0.2-1.1,0.3-1.7,0.3v0c-2.8,0-5.1-2.3-5.1-5.1c0-1.4,0.6-2.7,1.5-3.6
			c0.9-0.9,2.2-1.5,3.6-1.5V17.5z"/>
		<path class="st0" d="M12.1,10.3v12.4c-2.8,0-5.1-2.3-5.1-5.1V5.1c1.4,0,2.7,0.6,3.6,1.5C11.6,7.6,12.1,8.9,12.1,10.3z"/>
		<path class="st0" d="M5.1,10.3H0c0-1.4,0.6-2.7,1.5-3.6s2.2-1.5,3.6-1.5V10.3z"/>
	</g>
	<g>
		<path class="st0" d="M17.8,1.5c0.9,0.9,1.5,2.2,1.5,3.6v12.4c0,2.8-2.3,5.1-5.1,5.1V0C15.6,0,16.9,0.6,17.8,1.5z"/>
		<path class="st0" d="M26.3,10.3v7c0,2.8-2.3,5.1-5.1,5.1c-0.6,0-1.2-0.1-1.7-0.3c1.1-1.2,1.7-2.8,1.7-4.6V5.1
			c1.4,0,2.7,0.6,3.6,1.5C25.8,7.6,26.3,8.9,26.3,10.3z"/>
	</g>
</g>
</svg>
