<?xml version="1.0" encoding="utf-8"?>
<!-- Generator: Adobe Illustrator 24.1.0, SVG Export Plug-In . SVG Version: 6.00 Build 0)  -->
<svg version="1.1" id="Layer_1" xmlns="http://www.w3.org/2000/svg" xmlns:xlink="http://www.w3.org/1999/xlink" x="0px" y="0px"
	 viewBox="0 0 105.63 105.63" style="enable-background:new 0 0 105.63 105.63;" xml:space="preserve">
<style type="text/css">
	.st0{fill:#FFFFFF;}
</style>
<path class="st0" d="M52.82,0L52.82,0C23.65,0,0,23.65,0,52.82v0c0,29.17,23.65,52.82,52.82,52.82h0
	c29.17,0,52.82-23.65,52.82-52.82v0C105.63,23.65,81.99,0,52.82,0z M51.14,65.63c-0.94,0.73-1.89,1.45-2.85,2.13l-0.16,0.12
	l-0.61,11.55c-0.01,0.19-0.17,0.34-0.36,0.34H33.73c-0.1,0-0.19-0.04-0.26-0.11s-0.1-0.17-0.1-0.27l2.81-53.19
	c0.01-0.19,0.17-0.34,0.36-0.34h13.43c0.1,0,0.19,0.04,0.26,0.11c0.07,0.07,0.1,0.17,0.1,0.27l-1.26,23.93l0.77-0.81
	c4.13-4.32,7.62-9.2,10.38-14.48c0.06-0.12,0.18-0.19,0.31-0.19h13.49c0.18,0,0.27,0.12,0.31,0.17c0.03,0.05,0.1,0.18,0.03,0.34
	c-3.01,7.17-7.08,13.81-12.12,19.75C58.93,58.86,55.19,62.45,51.14,65.63z M76.91,79.59c-0.03,0.06-0.12,0.19-0.32,0.19H60.63
	c-0.13,0-0.24-0.06-0.31-0.17l-5.03-8.14l0.27-0.21c3.66-2.87,7.16-6.15,10.4-9.74l10.94,17.7C77,79.38,76.94,79.53,76.91,79.59z"/>
</svg>
