<?xml version="1.0" encoding="utf-8"?>
<!-- Generator: Adobe Illustrator 24.0.2, SVG Export Plug-In . SVG Version: 6.00 Build 0)  -->
<svg version="1.1" id="Layer_1" xmlns="http://www.w3.org/2000/svg" xmlns:xlink="http://www.w3.org/1999/xlink" x="0px" y="0px"
	 viewBox="0 0 360 360" style="enable-background:new 0 0 360 360;" xml:space="preserve">
<style type="text/css">
	.st0{fill:#FFFFFF;}
</style>
<path class="st0" d="M164.3,315.1l20.9,44.9l18.6-40.6L352.7,0.5h-37.8l-38.8,83.2l-35.8,76.8L185,279.1l-18.1-38.8
	c-5.2-11.1-5.2-24,0-35.2l31.1-66.5l15.9-34l48.6-104h-37.8l-48.5,104l-15.9,34l-20.5,43.9l-20.5-43.9L93.9,83.7L55.1,0.5H17.8
	l90.3,192L2.3,192.5l15.9,34.2l95.9,0c6,0,11.5,3.5,13.9,9l16.5,37L164.3,315.1z"/>
</svg>
