<?xml version="1.0" encoding="utf-8"?>
<!-- Generator: Adobe Illustrator 24.1.0, SVG Export Plug-In . SVG Version: 6.00 Build 0)  -->
<svg version="1.1" id="Layer_2_1_" xmlns="http://www.w3.org/2000/svg" xmlns:xlink="http://www.w3.org/1999/xlink" x="0px" y="0px"
	 viewBox="0 0 360 360" style="enable-background:new 0 0 360 360;" xml:space="preserve">
<style type="text/css">
	.st0{fill:#FFFFFF;}
</style>
<path class="st0" d="M273.4,216.4h-0.9l2-130.4c0,0,0-0.1,0-0.1c0-0.4,0-0.8-0.1-1.1c0-0.3,0-0.5-0.1-0.8c-0.1-0.3-0.2-0.6-0.3-0.9
	c-0.1-0.3-0.2-0.6-0.3-0.8c-0.1-0.3-0.3-0.5-0.4-0.7c-0.2-0.3-0.3-0.6-0.5-0.9c-0.1-0.2-0.3-0.4-0.5-0.6c-0.2-0.3-0.4-0.6-0.7-0.8
	c-0.2-0.2-0.4-0.3-0.5-0.5c-0.3-0.2-0.6-0.5-0.9-0.7c-0.2-0.1-0.4-0.2-0.5-0.3c-0.4-0.2-0.7-0.4-1.1-0.6c-0.2-0.1-0.4-0.1-0.5-0.2
	c-0.4-0.2-0.9-0.3-1.3-0.4c0,0-0.1,0-0.1,0c-0.2,0-0.4,0-0.6-0.1c-0.4-0.1-0.7-0.1-1.1-0.1c-0.1,0-0.1,0-0.2,0
	c-1.8,0-3.6,0.6-5.1,1.5c-0.1,0.1-0.2,0.1-0.2,0.1c-0.2,0.1-0.4,0.3-0.6,0.5c-0.3,0.2-0.6,0.5-0.9,0.7l0,0c-0.9,0.9-1.6,1.9-2,3.1
	c0,0,0,0.1,0,0.1c-0.2,0.5-0.4,1.1-0.5,1.7c0,0,0,0.1,0,0.1c-0.1,0.3-7,22.8-30.7,51.5c-10.9,13.2-20.7,27.2-28.6,40.6
	c-8.8-13.7-18.4-28.3-27.7-42.5c-5.1-7.8-9.9-15.1-10.6-16.3c-9.5-17.6-7-36.3,6.7-49.9c3.7-3.7,11.7-7.3,21-7.2
	c5.6,0.1,13.6,1.6,20.1,8.5c3,3.2,6.8,17,8.3,27.4c0.8,5.2,5.6,8.9,10.9,8.1c5.2-0.8,8.8-5.6,8.1-10.9c-1-6.6-4.8-28.7-13.4-37.8
	c-8.7-9.1-20.6-14.3-33.7-14.4c-13.4-0.3-26.7,4.7-34.8,12.9c-19.6,19.7-23.5,47.4-10,72.6c0.9,1.6,3.5,5.6,11.5,17.8
	c16.5,25,55.1,83.6,59.7,97.2c3.6,10.6,1.8,24.3-4.6,34.8c-4.1,6.9-12,15.5-25.9,17.8c-10.6,1.8-22.2-1.5-30.8-8.9
	c-7.9-6.7-12.3-15.6-12.3-25.1c0-15.6,10.2-30.9,17.4-39.8c5.9,11.6,9.3,21,9.3,26.4v14.4c0,5.3,4.3,9.6,9.6,9.6s9.6-4.3,9.6-9.6
	v-14.4c0-28.1-43.5-87.4-52.2-99.1c-16.2-21.6-20.8-39.4-22-49.8l0-11.5c0-5-3.8-9.1-8.8-9.5c-4.9-0.4-9.4,3.1-10.2,8
	c-0.1,0.5-0.8,5.3-0.1,13.2l0.3,118.4h-4.8c-5.3,0-9.6,4.3-9.6,9.6c0,5.3,4.3,9.6,9.6,9.6h14.4c0,0,0,0,0,0h9.5
	c5.3,0,9.6-4.3,9.6-9.6c0-5.3-4.3-9.6-9.6-9.6h0l-0.2-66.6c2,3.1,4.1,6.2,6.5,9.3c11.2,14.9,21.2,29.9,29.2,43.3
	c-7.9,8.6-26.7,31.8-26.7,57.6c0,15,6.9,29.4,19.1,39.7c10.6,9,24.1,13.9,37.6,13.9c2.9,0,5.9-0.2,8.8-0.7
	c16.5-2.8,30.4-12.3,39.2-26.8c9.2-15.3,11.7-34.8,6.3-50.8c-2.5-7.4-11.1-22.5-22.5-40.9c7.9-14.9,19.1-31.4,31.8-46.8
	c5.9-7.2,10.8-14.7,15-22l-1.2,90.5c0,0,0,0.1,0,0.1h-1.2c-5.3,0-9.6,4.3-9.6,9.6c0,5.3,4.3,9.6,9.6,9.6h21.2c5.3,0,9.6-4.3,9.6-9.6
	C283,220.7,278.7,216.4,273.4,216.4z"/>
</svg>
