<svg id="Layer_1" data-name="Layer 1" xmlns="http://www.w3.org/2000/svg" viewBox="0 0 430.4 218.98"><defs><style>.cls-1{fill:#fff;}</style></defs><title>INC.ANDELA-logo</title><path class="cls-1" d="M39.83,16.72h12.1V76.94H39.83Z" transform="translate(-39.83 140.81)"/><path class="cls-1" d="M95.68,50V16.58h12.14V78.17L71.51,43.58V77H59.41V15.45Z" transform="translate(-39.83 140.81)"/><path class="cls-1" d="M143.57,77.35a30.49,30.49,0,0,1-30.52-30.48,29.64,29.64,0,0,1,9-21.63,29.41,29.41,0,0,1,21.55-9l0,.15a31.1,31.1,0,0,1,21.67,8.93l-8.63,8.62a17.84,17.84,0,0,0-13-5.37,17.46,17.46,0,0,0-12.92,5.37,17.83,17.83,0,0,0-5.38,13,18.33,18.33,0,0,0,31.3,12.92l8.63,8.63A30.43,30.43,0,0,1,143.57,77.35Z" transform="translate(-39.83 140.81)"/><path class="cls-1" d="M194.49,15.49,222,76.94H208.87l-4.07-9.15H184.18l-4.07,9.15H167ZM200,57.1l-5.49-12.73L189,57.1Z" transform="translate(-39.83 140.81)"/><path class="cls-1" d="M263.49,50V16.58h12.14V78.17L239.32,43.58V77h-12.1V15.45Z" transform="translate(-39.83 140.81)"/><path class="cls-1" d="M299.13,16.72a30.6,30.6,0,0,1,22,8.86q8.07,8.1,8.07,21.31t-8.07,21.23a30,30,0,0,1-22,8.82h-16V16.76h16Zm0,12h-3.93V64.87h4c10.85,0,17.93-7.2,17.93-18.08S309.94,28.71,299.1,28.71Z" transform="translate(-39.83 140.81)"/><path class="cls-1" d="M370.75,16.58V28.64H346.54V40.78H364.7V52.85H346.54V65h24.21V77H334.44V16.58Z" transform="translate(-39.83 140.81)"/><path class="cls-1" d="M388.08,16.72V64.91h24.21v12H376V16.72Z" transform="translate(-39.83 140.81)"/><path class="cls-1" d="M442.74,15.49l27.49,61.45H457.12l-4.07-9.15H432.43l-4.07,9.15H415.28Zm5.53,41.61-5.49-12.73L437.21,57.1Z" transform="translate(-39.83 140.81)"/><text x="-39.83" y="140.81"/></svg>