<svg id="Layer_1" data-name="Layer 1" xmlns="http://www.w3.org/2000/svg" xmlns:xlink="http://www.w3.org/1999/xlink" viewBox="0 0 637.46 210.17"><defs><style>.cls-1{fill:none;}.cls-2{clip-path:url(#clip-path);}.cls-3{fill:#fff;}</style><clipPath id="clip-path" transform="translate(0 0)"><rect class="cls-1" width="637.46" height="210.16"/></clipPath></defs><g class="cls-2"><path class="cls-3" d="M636.79,129.34H614.06V103.09H602.94v26.25H574.38v10.1h28.56v49.67a25.62,25.62,0,0,0,1.86,10.61,17.56,17.56,0,0,0,4.71,6.4,15.82,15.82,0,0,0,6.31,3.2,28.13,28.13,0,0,0,6.66.84,35.65,35.65,0,0,0,15-2.87L637,197a27.29,27.29,0,0,1-5.56,2.19,21.65,21.65,0,0,1-5.89.84,17.21,17.21,0,0,1-4.63-.58,8.17,8.17,0,0,1-3.62-2.11,10.09,10.09,0,0,1-2.36-4.29,25.35,25.35,0,0,1-.84-7.16V139.44h22.73Zm-55.9,0H558.16V103.09H547.05v26.25H530.38v10.1h16.67v49.67a25.63,25.63,0,0,0,1.85,10.61,17.56,17.56,0,0,0,4.71,6.4,15.79,15.79,0,0,0,6.32,3.2,28,28,0,0,0,6.65.84,35.65,35.65,0,0,0,15-2.87l-.5-10.27a27.29,27.29,0,0,1-5.56,2.19,21.65,21.65,0,0,1-5.89.84,17.21,17.21,0,0,1-4.63-.58,8.17,8.17,0,0,1-3.62-2.11,10.09,10.09,0,0,1-2.36-4.29,25.35,25.35,0,0,1-.84-7.16V139.44h22.73Zm-67.52,0H502.26v78.8h11.11Zm0-36.12a7.93,7.93,0,0,0-11.11,0,7.94,7.94,0,0,0,0,11.62,7.93,7.93,0,0,0,11.11,0,7.94,7.94,0,0,0,0-11.62m-28.12,36.12H472.63l-25.09,66.34h-.34l-25.26-66.34H408.81l32,78.8h12.46Zm-83.51,42.43v-5.05a45.3,45.3,0,0,0-2.53-15.24A36.26,36.26,0,0,0,391.89,139a35.44,35.44,0,0,0-11.87-8.5,38.32,38.32,0,0,0-16-3.2,39.33,39.33,0,0,0-15.66,3.11,38.84,38.84,0,0,0-12.62,8.67,39.81,39.81,0,0,0-8.42,13.14,44,44,0,0,0-3,16.5,42.9,42.9,0,0,0,3.11,16.5,41.12,41.12,0,0,0,8.5,13.13A38.09,38.09,0,0,0,348.79,207,41.81,41.81,0,0,0,365,210.16a43.44,43.44,0,0,0,18.27-3.88q8.51-3.87,15.58-12.79l-8.59-7.07a30.91,30.91,0,0,1-9.85,9.51A28.09,28.09,0,0,1,365,200.05a27.19,27.19,0,0,1-10.94-2.18,29.08,29.08,0,0,1-15.15-15,33.67,33.67,0,0,1-2.87-11.11Zm-65.33-9.09a20.89,20.89,0,0,1,2.27-9.43,28.56,28.56,0,0,1,6.06-8.09,29.81,29.81,0,0,1,8.84-5.64,27,27,0,0,1,10.44-2.1q12.14,0,18.86,7t6.74,18.27Zm-32.33-52.09H293v31.88h-.34a29,29,0,0,0-6.39-6.9,40.09,40.09,0,0,0-7.75-4.72,37.16,37.16,0,0,0-8.33-2.69,42.69,42.69,0,0,0-8.17-.84,44.6,44.6,0,0,0-16.92,3.11,39,39,0,0,0-21.89,21.81,45.19,45.19,0,0,0,0,33A39,39,0,0,0,245.07,207,44.41,44.41,0,0,0,262,210.16a42.69,42.69,0,0,0,8.17-.84,37.18,37.18,0,0,0,8.33-2.7,39.55,39.55,0,0,0,7.75-4.71,28.9,28.9,0,0,0,6.39-6.91H293v13.14h11.11Zm-69.79,45.86a29.56,29.56,0,0,1,6-9.94,28.14,28.14,0,0,1,9.34-6.65A30.06,30.06,0,0,1,262,137.42a32,32,0,0,1,12.54,2.44,31.06,31.06,0,0,1,10,6.65,30,30,0,0,1,6.57,9.94,33.18,33.18,0,0,1,0,24.58,29.89,29.89,0,0,1-6.57,9.93,30.74,30.74,0,0,1-10,6.65A32,32,0,0,1,262,200.05a30.06,30.06,0,0,1-12.38-2.44,27.85,27.85,0,0,1-9.34-6.65,29.42,29.42,0,0,1-6-9.93,37,37,0,0,1,0-24.58M207.44,141a37.47,37.47,0,0,0-13.31-10.18,39.85,39.85,0,0,0-15.49-3.45,44.17,44.17,0,0,0-17.34,2.94,38.57,38.57,0,0,0-13.22,8.67,37.32,37.32,0,0,0-8.33,13.22,49.52,49.52,0,0,0,0,33.17,37.23,37.23,0,0,0,8.33,13.22,38.57,38.57,0,0,0,13.22,8.67,44,44,0,0,0,17.34,2.95,40.21,40.21,0,0,0,15.49-3.45,37.5,37.5,0,0,0,13.31-10.19l-9.1-6.9a23.73,23.73,0,0,1-8,7.4,22.63,22.63,0,0,1-11.71,3,29.05,29.05,0,0,1-12.37-2.18,27.14,27.14,0,0,1-9.35-6.57,28.48,28.48,0,0,1-5.89-10,40,40,0,0,1,0-25.09,28.48,28.48,0,0,1,5.89-10,27.12,27.12,0,0,1,9.35-6.56,29.2,29.2,0,0,1,12.37-2.19,22.63,22.63,0,0,1,11.71,3,23.76,23.76,0,0,1,8,7.41ZM.84,208.14H12V167.73q0-10.78,3.12-16.84a26.79,26.79,0,0,1,7-9.09,17.59,17.59,0,0,1,7.49-3.71,36,36,0,0,1,4.63-.67q11.45,0,15.66,6.4t4.21,18.35v46H65.16V166.21a47.4,47.4,0,0,1,1.18-10.69,28.5,28.5,0,0,1,3.79-9.18A19.88,19.88,0,0,1,77,139.86a20.47,20.47,0,0,1,10.44-2.44q11.44,0,15.66,6.4t4.2,18.35v46h11.12v-50q0-14.82-7.24-22.82t-22.4-8a29.34,29.34,0,0,0-15.23,4.37,26,26,0,0,0-10.7,12,26.53,26.53,0,0,0-5-8.25,23.57,23.57,0,0,0-6.32-5,24.55,24.55,0,0,0-7-2.44,37.16,37.16,0,0,0-6.81-.67,31.84,31.84,0,0,0-14.23,3.53,26.19,26.19,0,0,0-11.2,10.44H12V129.34H0c.22,2.92.42,5.83.59,8.75s.25,5.84.25,8.76Z" transform="translate(0 0)"/><path class="cls-3" d="M412.85,26.25c.23,2.92.42,6,.59,9.26s.26,6,.26,8.08v61.46h11.11V64.64q0-10.77,3.37-16.84a26.61,26.61,0,0,1,7.66-9.09A20.35,20.35,0,0,1,444,35a42.8,42.8,0,0,1,4.72-.68q12.28,0,16.83,7t4.55,20.12v43.61h11.11V55q0-14.8-7.24-22.81t-22.39-8a29.27,29.27,0,0,0-7.83,1.09,35.29,35.29,0,0,0-7.49,3,31.6,31.6,0,0,0-6.4,4.63,26.22,26.22,0,0,0-4.72,5.9h-.33q0-3.19-.09-6.32c-.05-2.07-.19-4.18-.42-6.31ZM371.6,56.73c-4.71,0-9.91.22-15.57.67a61.25,61.25,0,0,0-16,3.37,30.41,30.41,0,0,0-12.46,8.16q-5,5.47-5,15.07a21,21,0,0,0,2.27,10,22.11,22.11,0,0,0,6.06,7.24,25.51,25.51,0,0,0,8.67,4.38,35.83,35.83,0,0,0,10.1,1.43q9.6,0,16.25-3.45t11.53-11.37h.34c0,2.14.09,4.33.25,6.57s.43,4.32.76,6.23h10.78q-.51-3.19-.93-8.17t-.42-9.51V52.18a30.11,30.11,0,0,0-2.36-12.46,24.45,24.45,0,0,0-15.4-13.81,36.36,36.36,0,0,0-11-1.68q-22.23,0-33.34,11.45l6.74,7.91A34.8,34.8,0,0,1,357,34.33q20.21,0,20.21,20.37v2Zm5.56,9.09v5.72a33.28,33.28,0,0,1-1.43,9.85,21.43,21.43,0,0,1-12,13.56,25.41,25.41,0,0,1-10.52,2,29.75,29.75,0,0,1-6.65-.76,18.42,18.42,0,0,1-6-2.53,12.7,12.7,0,0,1-5.89-11.19,11.29,11.29,0,0,1,4.12-9.26,26.64,26.64,0,0,1,9.94-5,60.41,60.41,0,0,1,12.12-2q6.31-.42,10.52-.42ZM236.73,105.05h11.12V64.64q0-10.77,3.36-16.84a26.83,26.83,0,0,1,7.66-9.09A20.45,20.45,0,0,1,267,35a42.8,42.8,0,0,1,4.72-.68q12.28,0,16.83,7t4.55,20.12v43.61h11.11V55q0-14.8-7.24-22.81t-22.39-8a29.16,29.16,0,0,0-7.83,1.09,35.29,35.29,0,0,0-7.49,3A31.32,31.32,0,0,0,252.9,33a26.22,26.22,0,0,0-4.72,5.9h-.33V0H236.73Zm-14.81-78.8H199.19V0H188.07V26.25H171.41v10.1h16.66V86a25.59,25.59,0,0,0,1.86,10.61,17.56,17.56,0,0,0,4.71,6.4,15.79,15.79,0,0,0,6.32,3.2,28,28,0,0,0,6.65.84,35.81,35.81,0,0,0,15-2.86l-.5-10.27a27.88,27.88,0,0,1-5.56,2.19,22,22,0,0,1-5.89.84,17.2,17.2,0,0,1-4.63-.59,8.08,8.08,0,0,1-3.62-2.11A10.09,10.09,0,0,1,200,90a25.3,25.3,0,0,1-.84-7.16V36.35h22.73ZM139.08,56.73q-7.08,0-15.58.67a61.17,61.17,0,0,0-16,3.37,30.35,30.35,0,0,0-12.46,8.16q-5,5.47-5,15.07a21.16,21.16,0,0,0,2.27,10,22.26,22.26,0,0,0,6.07,7.24,25.51,25.51,0,0,0,8.67,4.38,35.83,35.83,0,0,0,10.1,1.43q9.6,0,16.25-3.45T145,92.25h.34q0,3.21.25,6.57a62.5,62.5,0,0,0,.76,6.23h10.77q-.5-3.19-.92-8.17t-.42-9.51V52.18a30.11,30.11,0,0,0-2.36-12.46,25.45,25.45,0,0,0-6.23-8.67A25,25,0,0,0,138,25.91a36.25,36.25,0,0,0-11-1.68q-22.23,0-33.34,11.45l6.73,7.91a34.82,34.82,0,0,1,24.08-9.26q20.2,0,20.2,20.37v2Zm5.55,9.09v5.72a33,33,0,0,1-1.43,9.85A21.45,21.45,0,0,1,131.25,95a25.46,25.46,0,0,1-10.53,2,29.82,29.82,0,0,1-6.65-.76,18.36,18.36,0,0,1-6-2.53,12.68,12.68,0,0,1-5.9-11.19,11.3,11.3,0,0,1,4.13-9.26,26.67,26.67,0,0,1,9.93-5,60.62,60.62,0,0,1,12.13-2c4.21-.28,7.71-.42,10.52-.42ZM0,26.25q.33,4.38.59,9.26t.25,8.08v61.46H12V64.64q0-10.77,3.37-16.84A26.83,26.83,0,0,1,23,38.71,20.45,20.45,0,0,1,31.15,35a43.1,43.1,0,0,1,4.71-.68q12.3,0,16.84,7t4.55,20.12v43.61H68.36V55q0-14.8-7.24-22.81t-22.39-8a29.16,29.16,0,0,0-7.83,1.09,35.59,35.59,0,0,0-7.5,3A31.53,31.53,0,0,0,17,33a26,26,0,0,0-4.72,5.9H12c0-2.13,0-4.24-.08-6.32s-.2-4.18-.42-6.31Z" transform="translate(0 0)"/></g></svg>