<?xml version="1.0" encoding="utf-8"?>
<!-- Generator: Adobe Illustrator 24.1.0, SVG Export Plug-In . SVG Version: 6.00 Build 0)  -->
<svg version="1.1" id="Layer_1" xmlns="http://www.w3.org/2000/svg" xmlns:xlink="http://www.w3.org/1999/xlink" x="0px" y="0px"
	 viewBox="0 0 432 293" style="enable-background:new 0 0 432 293;" xml:space="preserve">
<style type="text/css">
	.st0{fill:#FFFFFF;}
</style>
<g>
	<path class="st0" d="M246.2,227.76c-1.44,0-2.74,0.35-3.89,1.04c-1.16,0.69-2.17,1.63-3.03,2.81l-0.2-3.02
		c-0.05-0.33-0.24-0.49-0.57-0.49h-1.04v26.42h1.88V245c0.71,0.94,1.54,1.65,2.51,2.14c0.97,0.48,2.11,0.73,3.43,0.73
		c1.37,0,2.59-0.26,3.64-0.78c1.05-0.52,1.94-1.24,2.67-2.15c0.73-0.91,1.28-1.98,1.65-3.22c0.37-1.24,0.56-2.57,0.56-3.99
		c0-3.32-0.67-5.81-2.01-7.47C250.46,228.59,248.59,227.76,246.2,227.76z M251.45,241.25c-0.29,1.07-0.73,1.98-1.31,2.75
		c-0.58,0.76-1.3,1.36-2.17,1.77c-0.86,0.42-1.87,0.63-3.02,0.63c-0.58,0-1.12-0.05-1.64-0.16c-0.52-0.1-1-0.28-1.46-0.52
		c-0.46-0.24-0.89-0.56-1.31-0.94c-0.41-0.39-0.81-0.86-1.19-1.42v-10.3c0.82-1.19,1.76-2.12,2.8-2.79c1.05-0.67,2.22-1,3.51-1
		c2,0,3.54,0.68,4.61,2.05c1.07,1.37,1.61,3.5,1.61,6.41C251.89,239.01,251.74,240.18,251.45,241.25z"/>
	<path class="st0" d="M272.26,229.69c-0.52-0.62-1.17-1.1-1.95-1.43c-0.79-0.33-1.7-0.5-2.75-0.5c-1.43,0-2.7,0.26-3.82,0.78
		c-1.13,0.52-2.2,1.3-3.22,2.32l0.33,0.57c0.07,0.1,0.14,0.19,0.24,0.25c0.09,0.07,0.21,0.1,0.35,0.1c0.2,0,0.44-0.13,0.73-0.39
		c0.29-0.26,0.66-0.55,1.12-0.86c0.46-0.31,1.02-0.6,1.68-0.86c0.66-0.26,1.46-0.39,2.4-0.39c1.53,0,2.68,0.49,3.46,1.46
		c0.78,0.97,1.17,2.36,1.17,4.17v2.04c-2.21,0.05-4.1,0.23-5.68,0.55c-1.58,0.31-2.87,0.73-3.87,1.26
		c-1.01,0.52-1.75,1.14-2.22,1.84c-0.47,0.71-0.71,1.47-0.71,2.3c0,0.89,0.15,1.65,0.44,2.29s0.69,1.15,1.18,1.56
		c0.49,0.41,1.05,0.71,1.68,0.9c0.63,0.2,1.28,0.29,1.94,0.29c0.8,0,1.53-0.08,2.2-0.24c0.67-0.16,1.29-0.38,1.86-0.67
		c0.57-0.29,1.13-0.64,1.66-1.06c0.53-0.42,1.06-0.89,1.6-1.41l0.27,2.51c0.09,0.37,0.33,0.55,0.73,0.55h0.75V234.9
		c0-1.09-0.13-2.07-0.39-2.95S272.78,230.31,272.26,229.69z M271.99,243.28c-0.46,0.47-0.92,0.91-1.39,1.31
		c-0.47,0.41-0.98,0.76-1.52,1.05c-0.54,0.29-1.13,0.52-1.77,0.69c-0.63,0.16-1.33,0.25-2.09,0.25c-0.51,0-1-0.07-1.47-0.22
		c-0.47-0.14-0.89-0.37-1.25-0.68c-0.36-0.31-0.65-0.7-0.86-1.18c-0.22-0.48-0.32-1.04-0.32-1.7c0-0.69,0.21-1.31,0.63-1.85
		c0.42-0.54,1.06-1.01,1.93-1.4c0.87-0.39,1.97-0.7,3.32-0.93c1.34-0.23,2.94-0.38,4.8-0.44V243.28z"/>
	<path class="st0" d="M303.22,245.08c-0.09,0-0.22,0.07-0.37,0.21c-0.16,0.14-0.36,0.29-0.61,0.45c-0.25,0.16-0.54,0.31-0.88,0.45
		c-0.34,0.14-0.75,0.21-1.22,0.21c-0.38,0-0.73-0.06-1.06-0.18c-0.33-0.12-0.61-0.3-0.85-0.55c-0.24-0.25-0.43-0.57-0.57-0.95
		c-0.14-0.39-0.21-0.85-0.21-1.38v-13.24h6.16v-1.39h-6.16v-7.45h-0.88c-0.14,0-0.25,0.05-0.33,0.14c-0.08,0.09-0.13,0.2-0.16,0.31
		l-0.47,7h-10.57v-7.45h-0.88c-0.14,0-0.25,0.05-0.33,0.14c-0.08,0.09-0.13,0.2-0.16,0.31l-0.47,6.98l-3.33,0.24v0.73
		c0,0.14,0.05,0.26,0.14,0.33c0.09,0.08,0.21,0.12,0.35,0.12h2.81v13.34c0,1.53,0.37,2.66,1.11,3.39c0.74,0.73,1.77,1.1,3.09,1.1
		c0.82,0,1.62-0.17,2.38-0.5c0.77-0.33,1.4-0.77,1.89-1.32l-0.51-0.82c-0.1-0.13-0.21-0.2-0.31-0.2c-0.09,0-0.22,0.07-0.37,0.21
		c-0.16,0.14-0.36,0.29-0.61,0.45s-0.54,0.31-0.88,0.45c-0.34,0.14-0.75,0.21-1.22,0.21c-0.38,0-0.73-0.06-1.06-0.18
		c-0.33-0.12-0.61-0.3-0.85-0.55c-0.24-0.25-0.43-0.57-0.57-0.95s-0.21-0.85-0.21-1.38v-13.24h10.53v13.34
		c0,1.53,0.37,2.66,1.11,3.39c0.74,0.73,1.77,1.1,3.09,1.1c0.82,0,1.62-0.17,2.38-0.5c0.76-0.33,1.4-0.77,1.89-1.32l-0.51-0.82
		C303.43,245.15,303.33,245.08,303.22,245.08z"/>
	<path class="st0" d="M322.98,230.01c-0.69-0.73-1.51-1.28-2.45-1.66c-0.94-0.38-1.96-0.57-3.06-0.57c-1.39,0-2.63,0.24-3.72,0.73
		c-1.09,0.48-2.01,1.15-2.77,2.01c-0.75,0.86-1.33,1.88-1.73,3.06c-0.4,1.18-0.6,2.47-0.6,3.87c0,1.66,0.21,3.14,0.64,4.42
		c0.42,1.29,1.03,2.38,1.81,3.27c0.78,0.89,1.73,1.57,2.83,2.03c1.1,0.46,2.31,0.7,3.65,0.7c0.73,0,1.46-0.07,2.19-0.22
		c0.73-0.14,1.41-0.34,2.04-0.58c0.63-0.24,1.21-0.53,1.73-0.87c0.52-0.34,0.93-0.71,1.25-1.1l-0.51-0.63
		c-0.09-0.13-0.22-0.2-0.39-0.2c-0.13,0-0.34,0.11-0.63,0.32c-0.29,0.22-0.68,0.46-1.17,0.73c-0.49,0.27-1.1,0.51-1.81,0.73
		c-0.72,0.22-1.57,0.32-2.55,0.32c-1.1,0-2.09-0.19-2.98-0.57c-0.89-0.38-1.65-0.94-2.28-1.7c-0.63-0.75-1.11-1.68-1.45-2.8
		c-0.34-1.11-0.51-2.4-0.51-3.86v-0.37h14.2c0.18,0,0.31-0.05,0.39-0.16c0.08-0.1,0.12-0.3,0.12-0.59c0-1.37-0.2-2.59-0.6-3.65
		S323.67,230.73,322.98,230.01z M310.6,235.88c0.12-1.02,0.35-1.94,0.71-2.77s0.82-1.53,1.4-2.12c0.58-0.59,1.27-1.04,2.07-1.35
		c0.8-0.31,1.7-0.47,2.71-0.47c0.89,0,1.7,0.15,2.44,0.46c0.74,0.31,1.38,0.75,1.91,1.32c0.54,0.58,0.95,1.28,1.25,2.11
		c0.29,0.83,0.44,1.77,0.44,2.82H310.6z"/>
	<path class="st0" d="M340.16,227.76c-0.76,0-1.45,0.11-2.07,0.34c-0.62,0.23-1.18,0.56-1.69,0.99c-0.5,0.43-0.95,0.96-1.33,1.58
		c-0.39,0.62-0.73,1.33-1.03,2.13l-0.14-4.1c-0.03-0.22-0.08-0.38-0.18-0.47c-0.09-0.09-0.25-0.14-0.47-0.14h-1v19.52h1.88v-12.63
		c0.29-0.88,0.6-1.65,0.95-2.32c0.35-0.67,0.75-1.24,1.22-1.7c0.46-0.46,0.99-0.8,1.57-1.03c0.58-0.23,1.25-0.34,2.01-0.34
		c0.52,0,0.94,0.05,1.27,0.14c0.32,0.09,0.56,0.14,0.72,0.14c0.18,0,0.31-0.1,0.37-0.31l0.16-1.3c-0.3-0.18-0.65-0.31-1.04-0.38
		C340.97,227.8,340.57,227.76,340.16,227.76z"/>
	<path class="st0" d="M357.98,238.51c-0.5-0.38-1.08-0.7-1.74-0.95c-0.65-0.26-1.32-0.49-1.99-0.7c-0.67-0.21-1.34-0.42-1.99-0.63
		c-0.65-0.21-1.23-0.46-1.74-0.75c-0.5-0.29-0.91-0.63-1.23-1.04c-0.31-0.41-0.47-0.92-0.47-1.53c0-0.5,0.11-0.97,0.33-1.42
		c0.22-0.45,0.54-0.85,0.95-1.19c0.41-0.34,0.91-0.61,1.49-0.81c0.58-0.2,1.23-0.3,1.93-0.3c0.78,0,1.45,0.08,2,0.24
		c0.55,0.16,1.01,0.35,1.38,0.55c0.37,0.2,0.67,0.39,0.89,0.55c0.22,0.16,0.41,0.24,0.55,0.24c0.2,0,0.35-0.09,0.45-0.27l0.39-0.65
		c-0.76-0.71-1.6-1.23-2.52-1.57c-0.92-0.34-1.98-0.51-3.17-0.51c-0.99,0-1.89,0.14-2.69,0.43c-0.8,0.29-1.48,0.67-2.03,1.16
		c-0.56,0.48-0.98,1.05-1.28,1.69c-0.3,0.64-0.45,1.31-0.45,2c0,0.81,0.16,1.49,0.47,2.03c0.31,0.54,0.73,1,1.24,1.38
		c0.51,0.38,1.09,0.69,1.74,0.94c0.65,0.25,1.31,0.48,1.99,0.69c0.68,0.21,1.34,0.42,1.99,0.63c0.65,0.21,1.23,0.46,1.74,0.76
		c0.51,0.3,0.92,0.67,1.24,1.1c0.31,0.43,0.47,0.97,0.47,1.63c0,0.59-0.11,1.15-0.32,1.68c-0.22,0.53-0.53,0.99-0.95,1.38
		c-0.42,0.39-0.94,0.7-1.57,0.93c-0.63,0.23-1.35,0.34-2.18,0.34c-0.88,0-1.61-0.1-2.21-0.31c-0.6-0.21-1.1-0.43-1.5-0.68
		c-0.41-0.24-0.73-0.47-0.97-0.68c-0.24-0.21-0.45-0.31-0.62-0.31c-0.14,0-0.26,0.03-0.34,0.08c-0.08,0.05-0.16,0.13-0.23,0.23
		l-0.43,0.67c0.78,0.71,1.67,1.28,2.67,1.72c0.99,0.44,2.18,0.66,3.55,0.66c1.1,0,2.07-0.16,2.92-0.47
		c0.85-0.31,1.57-0.74,2.15-1.28c0.58-0.54,1.02-1.17,1.32-1.9c0.3-0.73,0.45-1.52,0.45-2.37c0-0.78-0.16-1.45-0.47-2
		C358.9,239.35,358.49,238.89,357.98,238.51z"/>
	<path class="st0" d="M381,230.53c-0.76-0.88-1.69-1.55-2.8-2.03c-1.11-0.48-2.36-0.72-3.76-0.72c-1.4,0-2.65,0.24-3.76,0.72
		c-1.11,0.48-2.04,1.15-2.81,2.03c-0.77,0.88-1.35,1.93-1.75,3.17c-0.4,1.24-0.6,2.62-0.6,4.15c0,1.53,0.2,2.91,0.6,4.14
		c0.4,1.23,0.98,2.28,1.75,3.16c0.76,0.88,1.7,1.55,2.81,2.02c1.1,0.47,2.36,0.71,3.76,0.71c1.4,0,2.65-0.23,3.76-0.71
		c1.11-0.47,2.04-1.14,2.8-2.02c0.76-0.88,1.34-1.93,1.74-3.16c0.4-1.23,0.6-2.61,0.6-4.14c0-1.53-0.2-2.91-0.6-4.15
		C382.34,232.46,381.76,231.4,381,230.53z M380.98,241.38c-0.29,1.05-0.72,1.95-1.3,2.7c-0.58,0.75-1.31,1.32-2.18,1.72
		c-0.87,0.4-1.89,0.6-3.05,0.6c-1.16,0-2.18-0.2-3.05-0.6c-0.87-0.4-1.6-0.97-2.18-1.72c-0.58-0.75-1.02-1.64-1.31-2.7
		c-0.29-1.05-0.44-2.23-0.44-3.54c0-1.29,0.15-2.47,0.44-3.53c0.29-1.06,0.73-1.96,1.31-2.72c0.58-0.75,1.31-1.33,2.18-1.74
		c0.87-0.4,1.89-0.61,3.05-0.61c1.16,0,2.18,0.2,3.05,0.61c0.87,0.41,1.6,0.98,2.18,1.74c0.58,0.75,1.02,1.66,1.3,2.72
		c0.29,1.06,0.43,2.24,0.43,3.53C381.41,239.15,381.27,240.33,380.98,241.38z"/>
	<path class="st0" d="M404.31,229.76c-0.54-0.64-1.21-1.13-2.03-1.47c-0.82-0.34-1.76-0.51-2.83-0.51c-1.45,0-2.77,0.34-3.95,1.02
		c-1.18,0.68-2.23,1.58-3.13,2.71l-0.18-2.92c-0.05-0.33-0.24-0.49-0.57-0.49h-1.04v19.52h1.88v-14.67c0.86-1.15,1.85-2.05,2.95-2.7
		c1.11-0.65,2.29-0.97,3.56-0.97c1.71,0,2.99,0.52,3.82,1.56c0.84,1.04,1.26,2.48,1.26,4.31v12.48h1.88v-12.48
		c0-1.14-0.14-2.16-0.41-3.06C405.25,231.17,404.84,230.4,404.31,229.76z"/>
	<path class="st0" d="M427.11,175.62c-1.87-0.29-3.61,0.98-3.9,2.84c-2.21,14.03-14.48,19.34-14.99,19.55
		c-0.04,0.02-0.08,0.03-0.12,0.05c-3.06,1.4-5.58,1.62-6.74,0.58c-0.73-0.66-0.96-1.93-0.56-3.17c0.23-0.61,2.1-5.6,2.47-6.58
		c0.95-1.89,1.5-2.98,1.91-3.79c0.67-1.32,0.98-1.92,1.94-3.95c0.23-0.49,0.34-0.98,0.47-2.09c0.08-0.75-0.08-1.5-0.46-2.14
		c-1.41-2.34-3.99-3.58-6.37-4.63c1.99-2.56,4.03-5.45,5.51-8.25c2.1-3.96,0.72-8.64-3.2-10.9c-3.91-2.25-8.47-1.12-10.83,2.68
		c-2.32,3.74-3.08,8.89-2.24,15.33c0.12,0.96,0.43,1.78,0.86,2.5c-0.36,0.49-0.7,0.99-1.04,1.48c-0.57,0.83-1.11,1.62-1.69,2.32
		c-12.12,14.66-24.49,19.78-30.79,21.53c-4.32,1.2-7.96,1.26-10.78,0.2l-0.13-0.05c-3.22-1.23-5.63-4.14-6.28-7.59
		c-0.34-1.8-0.55-3.53-0.64-5.2c2.02-1.45,4.04-2.92,5.53-4.23c0.93-0.81,1.93-1.66,2.96-2.54c6.8-5.79,15.26-12.99,17.65-21.13
		c0.35-0.98,1.58-4.98-0.46-8.29c-0.92-1.49-2.81-3.33-6.63-3.69c-3.07-0.28-5.94,1.31-7.83,2.7c-3.24,2.39-17.44,13.96-18.09,33.71
		c-0.81,0.59-1.56,1.16-2.22,1.68c-6.51,5.22-9.89,7.42-16.45,10.7c-3.1,1.55-5.85,2.18-9.47,2.2c-3.26-0.18-5.44-1.06-6.47-2.62
		c-2.52-3.82,0.6-12.22,2.1-16.25c0.2-0.55,0.39-1.06,0.55-1.51c0.82-2.29,0.95-4.72,0.39-7.2c0-0.01-0.01-0.03-0.01-0.04
		c-0.29-1.98-1.76-3.71-3.91-4.6c-2.64-1.09-5.61-0.66-7.55,1.09c-2.13,1.91-4.08,4.84-5.8,7.88c0.33-1.42,0.7-2.81,1.11-4.17
		c3.49-11.57,3.65-18.05,0.5-21c-1.48-1.39-3.29-1.62-4.68-1.37c-4.12,0-9.7,3.4-17.31,24.5c-0.64-0.71-1.55-1.12-2.51-1.12h-0.85
		c-1.59,0-2.97,1.1-3.32,2.64c-1.82,7.87-12.21,16.35-16.3,19.13c-0.6,0.29-1.02,0.42-1.28,0.48c-0.51-1.84,0.08-7.91,3.83-18.43
		c0.82-2.29,0.95-4.72,0.38-7.27c-0.01-0.05-0.02-0.09-0.04-0.14c-0.46-2.17-2.07-3.92-4.35-4.7c-2.49-0.85-5.2-0.33-7.08,1.36
		c-2.13,1.91-4.08,4.84-5.79,7.88c0.33-1.42,0.7-2.81,1.11-4.18c3.49-11.57,3.65-18.05,0.5-21c-1.48-1.39-3.29-1.63-4.68-1.37h0
		c-4.29,0-10.15,3.67-18.23,27.09c-0.62-2.23-1.62-3.92-2.99-5.11c-2.74-2.38-6.1-1.95-7.78-1.28c-6.97,2.41-17.89,13.2-19.12,14.43
		c-0.02,0.02-0.04,0.04-0.06,0.07c-4.07,4.3-9.17,8.43-12.3,10.66c-3.37,2.41-7.25,2.59-10.63,0.52c-3.94-2.42-6-7.15-5.26-12.06
		c1.66-10.98,6.47-22.64,6.52-22.76c0.44-1.05,0.32-2.25-0.31-3.2c-0.63-0.95-1.7-1.52-2.84-1.52h-1.71c-1.5,0-2.82,0.98-3.26,2.41
		c-8.99,29.21-17.8,34.95-18.58,35.4c-0.01,0-0.03,0.01-0.04,0.01c-0.71-3.75,1.29-15.39,4.68-26.6c0.54-1.8-0.48-3.71-2.28-4.25
		c-1.8-0.54-3.71,0.47-4.25,2.28c-0.08,0.28-2.11,7-3.58,14.32c-2.92,14.54-1.02,18.38,1.22,20.21c1.11,0.91,3.5,2.13,7.14,0.21
		c1.15-0.55,5.27-3.01,10.51-11.72c0.79,5.4,3.81,10.22,8.46,13.07c5.74,3.52,12.53,3.23,18.16-0.78
		c3.53-2.52,8.86-6.85,13.26-11.48c4.24-4.24,12.46-11.43,16.55-12.79c0.15-0.05,0.14-0.03,0.25-0.09c0.19-0.06,0.55-0.12,0.81,0.12
		c0.44,0.41,4.11,4.74-2.86,29.94c-0.28,1.03-0.07,2.13,0.57,2.98c0.65,0.85,1.65,1.35,2.72,1.35h1.71c1.59,0,2.97-1.1,3.32-2.64
		c0.03-0.13,3.14-13.53,7.53-26.8c7.7-23.28,12.23-25.02,12.72-25.14c0.2,1.32,0.22,4.91-2.39,13.56c-0.84,2.77-1.53,5.66-2.05,8.6
		c-1.47,8.2-0.77,10.68,0.2,12.14c0.63,0.95,1.7,1.52,2.84,1.52c2.3,0,4.42-1.26,5.51-3.29c0.46-0.86,0.99-1.92,1.59-3.15
		c1.96-3.98,4.93-10,7.67-12.47c0.05-0.03,0.17-0.02,0.27,0c0,0.01,0.01,0.02,0.01,0.03c0.25,1.2,0.19,2.32-0.18,3.35
		c-7.53,21.1-3.27,24.86-1.88,26.1c1.53,1.36,4.33,2.48,8.99,0.15c0.13-0.06,0.25-0.13,0.37-0.21c0.38-0.25,5.56-3.74,10.52-8.93
		l-2.97,15.69c-0.19,1,0.08,2.03,0.73,2.81c0.65,0.78,1.61,1.24,2.63,1.24h1.71c0.76,0,1.45-0.26,2.02-0.67
		c0.91-0.43,1.62-1.25,1.86-2.3c0.03-0.13,3.13-13.49,7.52-26.76c7.59-22.96,12.23-25.02,12.73-25.18c0.2,1.32,0.22,4.92-2.39,13.56
		c-0.84,2.77-1.53,5.66-2.05,8.6c-1.47,8.2-0.77,10.68,0.2,12.14c0.63,0.95,1.7,1.52,2.84,1.52c2.3,0,4.41-1.26,5.51-3.29
		c0.46-0.85,0.98-1.92,1.59-3.14c1.95-3.95,4.88-9.9,7.61-12.42c0.09-0.01,0.23,0.01,0.36,0.04c0.23,1.17,0.17,2.27-0.19,3.28
		c-0.15,0.43-0.33,0.91-0.52,1.43c-2.18,5.86-5.82,15.67-1.4,22.38c2.3,3.5,6.31,5.41,11.91,5.69c0.03,0,0.06,0,0.09,0
		c0.03,0,0.06,0.01,0.08,0.01c4.75,0,8.52-0.87,12.61-2.92c6.45-3.22,10.18-5.57,16.12-10.25c0.09,0.56,0.18,1.13,0.29,1.7
		c1.09,5.77,5.14,10.63,10.56,12.7c0,0,0.1,0.04,0.11,0.04c2.13,0.8,4.47,1.2,6.99,1.2c2.51,0,5.21-0.4,8.07-1.19
		c7.07-1.96,20.92-7.66,34.22-23.76c0.77-0.93,1.42-1.87,2.05-2.79c0.29-0.42,0.57-0.83,0.85-1.22c0.42,0.19,0.84,0.38,1.25,0.55
		c0.84,0.36,1.94,0.85,2.74,1.31c-0.44,0.91-0.71,1.45-1.18,2.36c-0.43,0.84-1.01,1.99-2.02,4c-0.05,0.11-0.1,0.22-0.14,0.33
		c-2.57,6.86-2.57,6.86-2.6,6.94c-1.29,3.86-0.32,7.96,2.46,10.45c1.93,1.73,6.33,4.11,14.09,0.57c1.32-0.56,16.3-7.3,19.06-24.77
		C430.24,177.66,428.97,175.91,427.11,175.62z M354.78,154.62c1.32-0.98,2.48-1.4,3.06-1.4c0.03,0,0.06,0,0.09,0
		c0.85,0.08,1.34,0.29,1.45,0.47c0.26,0.42,0.13,1.65-0.15,2.4c-0.04,0.1-0.07,0.21-0.1,0.31c-1.78,6.21-9.41,12.72-15.55,17.94
		c-1.06,0.9-2.08,1.77-3.03,2.6c-0.12,0.11-0.25,0.22-0.39,0.33C342.84,164.15,352.38,156.39,354.78,154.62z M400.24,160.84
		c-1.01,1.91-2.37,3.92-3.75,5.78c-0.03-3.05,0.49-5.5,1.54-7.2c0.12-0.19,0.37-0.6,0.89-0.6c0.2,0,0.45,0.06,0.75,0.23
		C400.19,159.36,400.73,159.91,400.24,160.84z"/>
	<path class="st0" d="M95.84,193.83c-2.2-1.03-4.44-2-6.6-2.95c-1.81-0.79-3.61-1.57-5.4-2.39c-35.54-16.27-41.55-25.71-46.68-38.27
		c-3.44-8.42-5.03-23.16-4.54-31.98c2.72-48.38,38.59-83.68,53.89-96.62c5.54-4.69,11.68-8.08,18.24-10.1
		c8.55-2.63,15.09-2.22,19.43,1.23c7.82,6.21,7.22,20.87,7.02,23.74c-0.07,0.94-0.1,1.88-0.13,2.83l-0.01,0.24
		c-1.64,45.42-31.7,106.88-32.01,107.49c-0.83,1.69-0.14,3.74,1.55,4.57c1.69,0.83,3.74,0.14,4.57-1.55
		c1.27-2.57,31.02-63.37,32.71-110.27l0.01-0.24c0.03-0.87,0.06-1.73,0.12-2.59c0.34-4.88,0.65-21.43-9.59-29.56
		c-6.2-4.93-14.84-5.73-25.68-2.41C95.3,7.3,88.36,11.13,82.11,16.42c-15.97,13.5-53.44,50.42-56.3,101.44
		c-0.55,9.77,1.18,25.51,5.03,34.94c5.57,13.63,12.42,24.61,50.16,41.89c1.83,0.84,3.67,1.64,5.52,2.45
		c2.12,0.93,4.32,1.88,6.44,2.87c5.96,2.78,12.8,8.91,14.12,17.75c1.56,10.41-4.85,22.46-18.53,34.83
		c-9.58,8.66-17.43,14.49-24.7,18.34c-36.61,19.38-48.5,12.04-52.33,5.94c-2.53-4.03-2.65-9.29-0.32-13.73
		c3.94-7.49,14.04-21.79,37.43-33.48c1.68-0.84,2.37-2.89,1.53-4.58c-0.84-1.69-2.89-2.37-4.58-1.53
		c-25.1,12.55-36.1,28.2-40.42,36.41c-3.46,6.58-3.24,14.45,0.58,20.53c4.11,6.55,10.83,9.82,19.95,9.82
		c10.64,0,24.55-4.46,41.35-13.36c7.78-4.12,16.07-10.26,26.08-19.31c19.54-17.66,22.04-31.99,20.71-40.9
		C112.09,205.24,103.4,197.37,95.84,193.83z"/>
</g>
</svg>
