<svg xmlns="http://www.w3.org/2000/svg" xmlns:xlink="http://www.w3.org/1999/xlink" viewBox="0 0 543.25 370.71"><defs><style>.cls-1{fill:none;}.cls-1,.cls-3{stroke:#fff;stroke-miterlimit:10;}.cls-2{clip-path:url(#clip-path);}.cls-3{fill:#fff;}.cls-4{isolation:isolate;}</style><clipPath id="clip-path" transform="translate(16.97 -1.15)"><rect class="cls-1" x="-16.47" y="1.66" width="542.25" height="369.7"/></clipPath></defs><g id="Layer_1" data-name="Layer 1"><g class="cls-2"><path class="cls-3" d="M18.08,235.51h27.8A10.61,10.61,0,0,0,56.5,224.89h0V53.81A38.43,38.43,0,0,0,18.08,15.38a3.84,3.84,0,1,1,0-7.68h83a1.52,1.52,0,0,1,1.52,1.52V65.34h1.1Q115.25,32.4,136.93,17T189.35,1.66q27.43,0,48.58,12.08t27.72,40.07h1.1A89.31,89.31,0,0,1,277.18,34.6a75,75,0,0,1,16.47-16.75A79.76,79.76,0,0,1,317,6.05a98,98,0,0,1,30.46-4.39q80.15,0,80.15,81.79v122.1a30,30,0,0,0,30,30H466a3.85,3.85,0,0,1,0,7.69H342a3.85,3.85,0,1,1-.39-7.69,2.54,2.54,0,0,1,.39,0h27.8a10.63,10.63,0,0,0,10.62-10.63v-176q0-18.66-10.15-29.09T342.51,9.35a76.94,76.94,0,0,0-27.45,5.21,73.44,73.44,0,0,0-24.7,15.65q-11,10.42-17.84,26.89t-6.87,38.43v110a30,30,0,0,0,30,30h8.47a3.85,3.85,0,0,1,0,7.69H180a3.85,3.85,0,0,1,0-7.69h27.8a10.61,10.61,0,0,0,10.62-10.62h0V56.55q0-24.13-9.88-35.68T182.21,9.35q-11.52,0-25.25,5.76a76.17,76.17,0,0,0-25.52,18.11q-11.82,12.36-19.77,32.12t-8,48.31v91.9a30,30,0,0,0,30,30h8.47a3.85,3.85,0,0,1,0,7.69H18.08a3.85,3.85,0,0,1,0-7.69" transform="translate(16.97 -1.15)"/></g><rect class="cls-1" x="0.5" y="0.51" width="542.25" height="369.7"/><g class="cls-4"><g class="cls-4"><path class="cls-3" d="M17.13,331.59V298.35a.34.34,0,0,1,.39-.39h.78a.43.43,0,0,1,.44.24l10.15,15.85a.16.16,0,0,0,.1.05.19.19,0,0,0,.1-.05l10.2-15.85a.49.49,0,0,1,.44-.24h.78a.34.34,0,0,1,.39.39v33.24a.34.34,0,0,1-.39.39h-.68a.34.34,0,0,1-.39-.39V301a.11.11,0,0,0-.07-.12.1.1,0,0,0-.12.07l-9.48,14.83a.42.42,0,0,1-.44.24H28.8a.48.48,0,0,1-.44-.24l-9.58-14.83a.1.1,0,0,0-.12-.07.11.11,0,0,0-.07.12v30.62a.34.34,0,0,1-.39.39h-.68A.34.34,0,0,1,17.13,331.59Z" transform="translate(16.97 -1.15)"/></g><g class="cls-4"><path class="cls-3" d="M63.56,331a9.52,9.52,0,0,1-3.81-3.74,11.07,11.07,0,0,1-1.36-5.56V308.31a11.34,11.34,0,0,1,1.36-5.61,9.46,9.46,0,0,1,3.81-3.79,11.7,11.7,0,0,1,5.67-1.34A11.89,11.89,0,0,1,75,298.91a9.41,9.41,0,0,1,3.84,3.79,11.34,11.34,0,0,1,1.36,5.61v13.37a11.07,11.07,0,0,1-1.36,5.56A9.47,9.47,0,0,1,75,331a11.77,11.77,0,0,1-5.73,1.34A11.59,11.59,0,0,1,63.56,331Zm12.54-2.52a9,9,0,0,0,2.6-6.73V308.26a9.06,9.06,0,0,0-2.6-6.75,9.32,9.32,0,0,0-6.87-2.58,8.85,8.85,0,0,0-9.38,9.33v13.47a9,9,0,0,0,2.57,6.73A9.27,9.27,0,0,0,69.23,331,9.38,9.38,0,0,0,76.1,328.46Z" transform="translate(16.97 -1.15)"/></g><g class="cls-4"><path class="cls-3" d="M117.64,331.69l-7.88-16.14a.26.26,0,0,0-.14-.09H99.22c-.1,0-.15,0-.15.14v16a.34.34,0,0,1-.39.39H98a.34.34,0,0,1-.39-.39V298.25a.34.34,0,0,1,.39-.39h11.86a8.47,8.47,0,0,1,6.34,2.46,8.7,8.7,0,0,1,2.41,6.39,8.83,8.83,0,0,1-2,5.88,8,8,0,0,1-5.27,2.77c-.1,0-.13.05-.1.14l7.73,16a.34.34,0,0,1,0,.32.29.29,0,0,1-.27.12h-.63A.49.49,0,0,1,117.64,331.69ZM99.07,299.37V314c0,.1.05.14.15.14h10.64a7,7,0,0,0,5.27-2.06,8.21,8.21,0,0,0,0-10.79,7,7,0,0,0-5.27-2.07H99.22A.13.13,0,0,0,99.07,299.37Z" transform="translate(16.97 -1.15)"/></g><g class="cls-4"><path class="cls-3" d="M138.92,331.13a9.11,9.11,0,0,1-3.77-3.5,10.08,10.08,0,0,1-1.33-5.22V307.54a10.09,10.09,0,0,1,1.33-5.23,9.11,9.11,0,0,1,3.77-3.5,13.33,13.33,0,0,1,11.23,0,8.86,8.86,0,0,1,3.74,3.5,10.17,10.17,0,0,1,1.31,5.18v.82a.34.34,0,0,1-.39.39h-.68a.34.34,0,0,1-.39-.39v-.87a8,8,0,0,0-2.52-6.17,10.71,10.71,0,0,0-13.39,0,8,8,0,0,0-2.55,6.2v15a8,8,0,0,0,2.55,6.19,10.77,10.77,0,0,0,13.39.05,7.94,7.94,0,0,0,2.52-6.15v-5.64a.12.12,0,0,0-.14-.14h-8.26a.34.34,0,0,1-.39-.39v-.53a.34.34,0,0,1,.39-.39h9.47a.34.34,0,0,1,.39.39v6.51a10.35,10.35,0,0,1-1.31,5.27,8.86,8.86,0,0,1-3.74,3.5,13.33,13.33,0,0,1-11.23,0Z" transform="translate(16.97 -1.15)"/></g><g class="cls-4"><path class="cls-3" d="M191.41,331.64l-2.28-6.95s0-.06-.08-.07l-.12,0H173l-.12,0c-.05,0-.07,0-.07.07l-2.29,6.95a.41.41,0,0,1-.44.34h-.68a.36.36,0,0,1-.29-.12.38.38,0,0,1,0-.32l11-33.24a.41.41,0,0,1,.44-.34h.87a.42.42,0,0,1,.44.34l11,33.24.05.15a.26.26,0,0,1-.12.19.39.39,0,0,1-.27.1h-.63A.41.41,0,0,1,191.41,331.64Zm-18-8.36h15c.16,0,.21,0,.14-.14L181,300.05a.16.16,0,0,0-.1-.05.19.19,0,0,0-.1.05l-7.53,23.09C173.25,323.23,173.3,323.28,173.43,323.28Z" transform="translate(16.97 -1.15)"/><path class="cls-3" d="M208,331.59V298.35a.34.34,0,0,1,.39-.39h.78a.41.41,0,0,1,.43.24l18.91,30.72c0,.06.07.09.12.07s.07-.05.07-.12V298.35a.34.34,0,0,1,.39-.39h.68a.34.34,0,0,1,.39.39v33.24a.34.34,0,0,1-.39.39h-.73a.46.46,0,0,1-.43-.24l-19-30.72c0-.06-.07-.09-.12-.07a.11.11,0,0,0-.07.12v30.52a.34.34,0,0,1-.39.39h-.68A.34.34,0,0,1,208,331.59Z" transform="translate(16.97 -1.15)"/></g><g class="cls-4"><path class="cls-3" d="M266.4,331.59V298.35a.34.34,0,0,1,.39-.39h.68a.34.34,0,0,1,.39.39v32.12a.13.13,0,0,0,.15.15h18a.34.34,0,0,1,.39.39v.58a.34.34,0,0,1-.39.39h-19.2A.34.34,0,0,1,266.4,331.59Z" transform="translate(16.97 -1.15)"/></g><g class="cls-4"><path class="cls-3" d="M323.26,331.64,321,324.69s0-.06-.08-.07l-.12,0H304.84l-.12,0c-.05,0-.07,0-.07.07l-2.29,6.95a.41.41,0,0,1-.44.34h-.68a.36.36,0,0,1-.29-.12.38.38,0,0,1-.05-.32l11-33.24a.41.41,0,0,1,.44-.34h.87a.42.42,0,0,1,.44.34l11,33.24.05.15a.26.26,0,0,1-.12.19.39.39,0,0,1-.27.1h-.63A.42.42,0,0,1,323.26,331.64Zm-18-8.36h15c.16,0,.21,0,.14-.14l-7.58-23.09a.16.16,0,0,0-.1-.05.14.14,0,0,0-.09.05l-7.54,23.09C305.1,323.23,305.15,323.28,305.28,323.28Z" transform="translate(16.97 -1.15)"/></g><g class="cls-4"><path class="cls-3" d="M343.43,331.15a9,9,0,0,1-3.76-3.59,10.5,10.5,0,0,1-1.34-5.35V307.63a10.15,10.15,0,0,1,1.34-5.25,9.2,9.2,0,0,1,3.76-3.55,13.14,13.14,0,0,1,11.23,0,9.2,9.2,0,0,1,3.76,3.55,10.25,10.25,0,0,1,1.34,5.25v.15a.34.34,0,0,1-.39.39l-.68,0q-.39,0-.39-.33v-.3a8.23,8.23,0,0,0-2.52-6.27,10.68,10.68,0,0,0-13.44,0,8.18,8.18,0,0,0-2.55,6.27v14.78a8.24,8.24,0,0,0,2.55,6.29,10.53,10.53,0,0,0,13.41,0,8.24,8.24,0,0,0,2.55-6.29v-.2a.34.34,0,0,1,.39-.39l.68.05c.26,0,.39.07.39.2v.24a10.43,10.43,0,0,1-1.34,5.32,9.06,9.06,0,0,1-3.76,3.57,13,13,0,0,1-11.23,0Z" transform="translate(16.97 -1.15)"/><path class="cls-3" d="M376.82,331.59V298.35a.34.34,0,0,1,.39-.39h.68a.34.34,0,0,1,.39.39v18.22s0,.06.07.08.09,0,.12,0l17.84-18.46a.66.66,0,0,1,.48-.2h.73a.37.37,0,0,1,.34.15c.07.09,0,.21-.09.34l-12.59,13.31s0,.1,0,.2L399,331.49l.1.25c0,.16-.12.24-.34.24h-.93a.56.56,0,0,1-.43-.15l-.1-.14-13.12-18.57c-.07-.09-.13-.11-.2,0l-5.59,5.49-.09.19v12.83a.34.34,0,0,1-.39.39h-.68A.34.34,0,0,1,376.82,331.59Z" transform="translate(16.97 -1.15)"/></g><g class="cls-4"><path class="cls-3" d="M434.6,299.32H415.46a.13.13,0,0,0-.15.15V314.1c0,.09.05.14.15.14h13.85a.34.34,0,0,1,.39.39v.58a.34.34,0,0,1-.39.39H415.46a.13.13,0,0,0-.15.15v14.72a.13.13,0,0,0,.15.15H434.6a.34.34,0,0,1,.39.39v.58a.34.34,0,0,1-.39.39H414.24a.34.34,0,0,1-.39-.39V298.35a.34.34,0,0,1,.39-.39H434.6a.34.34,0,0,1,.39.39v.58A.34.34,0,0,1,434.6,299.32Z" transform="translate(16.97 -1.15)"/></g><g class="cls-4"><path class="cls-3" d="M458.46,331.59V315.85l0-.2-10.21-17.2,0-.2a.26.26,0,0,1,.29-.29h.68a.48.48,0,0,1,.44.24l9.53,16a.12.12,0,0,0,.19,0l9.53-16a.46.46,0,0,1,.43-.24h.68a.27.27,0,0,1,.27.15.38.38,0,0,1,0,.34L460,315.65l-.05.2v15.74a.34.34,0,0,1-.39.39h-.68A.34.34,0,0,1,458.46,331.59Z" transform="translate(16.97 -1.15)"/></g></g></g></svg>