<?xml version="1.0" encoding="utf-8"?>
<!-- Generator: Adobe Illustrator 24.1.0, SVG Export Plug-In . SVG Version: 6.00 Build 0)  -->
<svg version="1.1" xmlns="http://www.w3.org/2000/svg" xmlns:xlink="http://www.w3.org/1999/xlink" x="0px" y="0px"
	 viewBox="0 0 605 184.42" style="enable-background:new 0 0 605 184.42;" xml:space="preserve">
<style type="text/css">
	.st0{display:none;}
	.st1{display:inline;}
</style>
<g id="Layer_1">
</g>
<g id="Layer_2" class="st0">
	<path class="st1" d="M183.12,57.23c-2.82,0-5.32,0.92-7.49,2.77c-2.17,1.85-3.25,4.12-3.25,6.83c0,2.71,1.22,5.21,3.66,7.49
		c2.44,2.28,5.37,4.37,8.79,6.27c3.42,1.9,6.86,3.93,10.33,6.1c3.47,2.17,6.43,4.94,8.87,8.3c2.44,3.36,3.66,7.22,3.66,11.55
		c0,6.4-2.42,11.85-7.24,16.35c-4.83,4.5-10.66,6.75-17.49,6.75c-4.34,0-8.38-0.95-12.12-2.85c-3.74-1.9-6.48-4.42-8.22-7.57v-7.81
		c4.12,9.11,10.74,13.67,19.85,13.67c5.64,0,10.39-1.73,14.24-5.21c3.85-3.47,5.78-7.35,5.78-11.63c0-4.28-1.22-7.89-3.66-10.82
		c-2.44-2.93-5.4-5.42-8.87-7.49c-3.47-2.06-6.92-4.09-10.33-6.1c-3.42-2.01-6.34-4.45-8.79-7.32c-2.44-2.87-3.66-6.24-3.66-10.09
		c0-3.85,1.55-7.1,4.64-9.76c3.09-2.66,7.08-3.99,11.96-3.99s9.06,1.9,12.53,5.69v6.67C192.82,59.83,188.43,57.23,183.12,57.23z"/>
</g>
<g id="Layer_3">
	<g>
		<path d="M132.23,168.89c-1.22-2.42-1.83-4.95-1.83-7.58s0.6-5.15,1.82-7.55c1.21-2.4,2.87-4.46,4.99-6.19v1.1
			c-3.86,3.54-5.8,7.78-5.8,12.72c0,2.44,0.51,4.74,1.53,6.89c1.02,2.16,2.44,4.06,4.27,5.71v1.19
			C135.11,173.41,133.45,171.31,132.23,168.89z"/>
		<path d="M143.09,155.47c-0.59,0-0.88-0.27-0.88-0.82c0-0.55,0.29-0.82,0.88-0.82c0.59,0,0.88,0.27,0.88,0.82
			C143.97,155.19,143.68,155.47,143.09,155.47z M143.58,158.82v13.7h-0.98v-13.7H143.58z"/>
		<path d="M154.19,171.85v0.85c-1.44,0-2.67-0.48-3.69-1.45c-1.02-0.97-1.53-2.2-1.53-3.71v-14.28h0.98v5.55h4.21v0.85h-4.21v7.87
			c0,1.24,0.41,2.27,1.24,3.08S153.01,171.85,154.19,171.85z"/>
		<path d="M159.04,149.66v2.28c0,1.32-0.6,2.26-1.8,2.81v1.07c0.87-0.26,1.58-0.74,2.1-1.42s0.79-1.5,0.79-2.46v-2.28H159.04z"/>
		<path d="M183.08,178.62v-19.83h0.98v3.36c0.55-1.12,1.41-2.01,2.58-2.69c1.17-0.67,2.38-1.01,3.65-1.01
			c2.01,0,3.73,0.71,5.14,2.12c1.41,1.41,2.12,3.11,2.12,5.08s-0.71,3.67-2.12,5.08c-1.41,1.41-3.13,2.12-5.14,2.12
			c-1.22,0-2.41-0.33-3.57-0.99c-1.16-0.66-2.04-1.55-2.65-2.67v9.43H183.08z M183.99,165.69c0,1.71,0.62,3.19,1.88,4.44
			c1.25,1.25,2.74,1.88,4.45,1.88c1.72,0,3.19-0.63,4.41-1.88c1.22-1.25,1.83-2.74,1.83-4.46s-0.62-3.21-1.85-4.47
			c-1.23-1.26-2.7-1.89-4.41-1.89s-3.19,0.64-4.44,1.91S183.99,163.98,183.99,165.69z"/>
		<path d="M213.67,170.68c-1.4-1.45-2.11-3.15-2.11-5.08c0-1.93,0.71-3.6,2.14-5.02s3.14-2.12,5.14-2.12c2,0,3.71,0.71,5.12,2.12
			s2.12,3.09,2.12,5.03s-0.69,3.64-2.08,5.08c-1.38,1.45-3.06,2.17-5.03,2.17h-0.27C216.75,172.86,215.07,172.13,213.67,170.68z
			 M225.11,165.67c0-1.72-0.62-3.21-1.85-4.47c-1.23-1.26-2.7-1.89-4.41-1.89c-1.71,0-3.19,0.64-4.44,1.91s-1.88,2.76-1.88,4.47
			c0,1.71,0.63,3.19,1.88,4.44c1.25,1.25,2.74,1.88,4.45,1.88s3.19-0.63,4.41-1.88C224.5,168.88,225.11,167.39,225.11,165.67z"/>
		<path d="M230.06,172.52h-0.98v-13.73h0.98v2.78c1.04-2.07,2.81-3.11,5.31-3.11c1.71,0,3.14,0.59,4.3,1.77
			c1.16,1.18,1.74,2.61,1.74,4.3v7.99h-0.98v-7.99c0-1.4-0.49-2.62-1.48-3.66c-0.99-1.04-2.18-1.56-3.58-1.56
			c-1.4,0-2.64,0.52-3.71,1.56c-1.07,1.04-1.6,2.26-1.6,3.66V172.52z"/>
		<path d="M246.52,170.68c-1.4-1.45-2.11-3.15-2.11-5.08c0-1.93,0.71-3.6,2.14-5.02s3.14-2.12,5.14-2.12c2,0,3.71,0.71,5.12,2.12
			c1.41,1.41,2.12,3.09,2.12,5.03s-0.69,3.64-2.08,5.08c-1.38,1.45-3.06,2.17-5.03,2.17h-0.27
			C249.6,172.86,247.92,172.13,246.52,170.68z M257.96,165.67c0-1.72-0.62-3.21-1.85-4.47c-1.23-1.26-2.7-1.89-4.41-1.89
			c-1.71,0-3.19,0.64-4.44,1.91s-1.88,2.76-1.88,4.47c0,1.71,0.63,3.19,1.88,4.44c1.25,1.25,2.74,1.88,4.45,1.88
			s3.19-0.63,4.41-1.88C257.35,168.88,257.96,167.39,257.96,165.67z"/>
		<path d="M273.28,158.79h0.98v13.73h-0.98v-2.78c-1.04,2.07-2.81,3.11-5.31,3.11c-1.71,0-3.14-0.59-4.3-1.77s-1.74-2.61-1.74-4.3
			v-7.99h0.98v7.99c0,1.4,0.49,2.62,1.48,3.66c0.99,1.04,2.18,1.56,3.58,1.56s2.64-0.52,3.71-1.56c1.07-1.04,1.6-2.26,1.6-3.66
			V158.79z"/>
		<path d="M278.23,172.52h-0.98v-13.73h0.98v2.78c1.04-2.07,2.81-3.11,5.31-3.11c1.71,0,3.14,0.59,4.3,1.77
			c1.16,1.18,1.74,2.61,1.74,4.3v7.99h-0.98v-7.99c0-1.4-0.49-2.62-1.48-3.66c-0.99-1.04-2.18-1.56-3.58-1.56
			c-1.4,0-2.64,0.52-3.71,1.56c-1.07,1.04-1.6,2.26-1.6,3.66V172.52z"/>
		<path d="M300,172.92h-0.27c-1.95,0-3.63-0.72-5.03-2.17s-2.11-3.14-2.11-5.08s0.71-3.62,2.14-5.03c1.42-1.41,3.17-2.12,5.25-2.12
			s3.84,0.78,5.31,2.35v1.56c-0.63-0.94-1.43-1.68-2.39-2.23c-0.97-0.55-1.98-0.82-3.04-0.82c-1.69,0-3.16,0.62-4.41,1.88
			s-1.88,2.74-1.88,4.47c0,1.73,0.63,3.22,1.88,4.47s2.72,1.88,4.41,1.88c1.06,0,2.07-0.27,3.04-0.82c0.97-0.55,1.76-1.3,2.39-2.26
			v1.59C303.85,172.14,302.09,172.92,300,172.92z"/>
		<path d="M340.08,149.64v22.88h-0.98v-3.33c-0.61,1.12-1.49,2.01-2.65,2.67c-1.16,0.66-2.35,0.99-3.57,0.99
			c-2.01,0-3.73-0.71-5.14-2.12c-1.41-1.41-2.12-3.11-2.12-5.08s0.71-3.67,2.12-5.08c1.41-1.41,3.13-2.12,5.14-2.12
			c1.26,0,2.48,0.34,3.65,1.01c1.17,0.67,2.03,1.57,2.58,2.69v-12.51H340.08z M326.6,165.67c0,1.72,0.61,3.2,1.83,4.46
			c1.22,1.25,2.69,1.88,4.41,1.88s3.2-0.63,4.46-1.88c1.25-1.25,1.88-2.73,1.88-4.44c0-1.71-0.63-3.2-1.88-4.47
			c-1.25-1.27-2.73-1.91-4.44-1.91c-1.71,0-3.18,0.63-4.41,1.89C327.21,162.46,326.6,163.95,326.6,165.67z"/>
		<path d="M353.87,178.56v-0.85c1.2,0,2.22-0.41,3.05-1.22s1.25-1.84,1.25-3.08v-14.61h0.98v14.61c0,1.5-0.51,2.74-1.54,3.71
			C356.58,178.08,355.33,178.56,353.87,178.56z M358.69,155.47c-0.59,0-0.88-0.27-0.88-0.82c0-0.55,0.29-0.82,0.88-0.82
			s0.88,0.27,0.88,0.82C359.57,155.19,359.28,155.47,358.69,155.47z"/>
		<path d="M380.89,172.52h-0.98v-13.73h0.98v2.78c1.04-2.07,2.81-3.11,5.31-3.11c1.71,0,3.14,0.59,4.3,1.77
			c1.16,1.18,1.74,2.61,1.74,4.3v7.99h-0.98v-7.99c0-1.4-0.49-2.62-1.48-3.66c-0.99-1.04-2.18-1.56-3.58-1.56
			c-1.4,0-2.64,0.52-3.71,1.56c-1.07,1.04-1.6,2.26-1.6,3.66V172.52z"/>
		<path d="M403.55,172.52h-0.98v-13.73h0.98v2.78c1.04-2.07,2.81-3.11,5.31-3.11c1.71,0,3.14,0.59,4.3,1.77
			c1.16,1.18,1.74,2.61,1.74,4.3v7.99h-0.98v-7.99c0-1.4-0.49-2.62-1.48-3.66c-0.99-1.04-2.18-1.56-3.58-1.56
			c-1.4,0-2.64,0.52-3.71,1.56c-1.07,1.04-1.6,2.26-1.6,3.66V172.52z"/>
		<path d="M396.68,163.8c0-0.96,0.48-1.43,1.45-1.43c0.97,0,1.45,0.48,1.45,1.43c0,0.45-0.13,0.8-0.4,1.05
			c-0.26,0.25-0.62,0.38-1.07,0.38C397.16,165.23,396.68,164.75,396.68,163.8z"/>
		<path d="M418.79,155.47c-0.59,0-0.88-0.27-0.88-0.82c0-0.55,0.29-0.82,0.88-0.82c0.59,0,0.88,0.27,0.88,0.82
			C419.67,155.19,419.38,155.47,418.79,155.47z M419.28,158.82v13.7h-0.98v-13.7H419.28z"/>
		<path d="M424.11,163.8c0-0.96,0.48-1.43,1.45-1.43c0.97,0,1.45,0.48,1.45,1.43c0,0.45-0.13,0.8-0.4,1.05
			c-0.26,0.25-0.62,0.38-1.07,0.38C424.59,165.23,424.11,164.75,424.11,163.8z"/>
		<path d="M435.23,153.24v0.85c-1.18,0-2.18,0.41-3,1.22c-0.82,0.81-1.24,1.84-1.24,3.08v8.02h4.27v0.85h-4.27v5.25h-0.98V158.4
			c0-1.5,0.51-2.74,1.53-3.71C432.55,153.72,433.79,153.24,435.23,153.24z"/>
		<path d="M471.69,153.83c1.18,2.35,1.77,4.85,1.77,7.51s-0.61,5.18-1.83,7.58c-1.22,2.4-2.89,4.47-5,6.22v-1.16
			c1.85-1.63,3.28-3.52,4.3-5.69c1.02-2.17,1.53-4.47,1.53-6.91c0-2.44-0.51-4.75-1.53-6.93c-1.02-2.18-2.45-4.08-4.3-5.71v-0.92
			l0.12-0.06C468.86,149.47,470.51,151.49,471.69,153.83z"/>
		<path d="M322.62,166.41l-0.88-0.16c-0.01,0.12-0.07,0.43-0.11,0.67c-0.4,2.09-1.76,3.26-1.76,3.26c-0.84,0.74-1.8,1.25-2.87,1.54
			c-1.07,0.29-2.19,0.28-3.36-0.03c-1.17-0.31-2.26-1.14-3.25-2.5l11.61-6.63c-1.02-1.98-2.53-3.24-4.54-3.78
			c-2.01-0.54-3.88-0.31-5.61,0.69c-1.73,0.99-2.84,2.42-3.33,4.27c-0.49,1.85-0.24,3.66,0.77,5.42c1,1.76,2.43,2.89,4.29,3.38
			l0.26,0.07c1.97,0.52,3.85,0.21,5.64-0.94c0,0,0.98-0.69,1.47-1.32C322.41,168.73,322.62,166.41,322.62,166.41z M309.48,163.89
			c0.42-1.56,1.38-2.78,2.9-3.66c1.52-0.88,3.05-1.11,4.61-0.7c1.55,0.41,2.79,1.31,3.72,2.68l-10.77,6.19
			C309.22,166.96,309.07,165.46,309.48,163.89z"/>
		<path d="M376.92,166.36l-0.88-0.16c-0.01,0.12-0.07,0.43-0.11,0.67c-0.4,2.09-1.76,3.26-1.76,3.26c-0.84,0.74-1.8,1.25-2.87,1.54
			c-1.07,0.29-2.19,0.28-3.36-0.03c-1.17-0.31-2.26-1.14-3.25-2.5l11.61-6.63c-1.02-1.98-2.53-3.24-4.54-3.78
			c-2.01-0.54-3.88-0.31-5.61,0.69c-1.73,0.99-2.84,2.42-3.33,4.27c-0.49,1.85-0.24,3.66,0.77,5.42c1,1.76,2.43,2.89,4.29,3.38
			l0.26,0.07c1.97,0.52,3.85,0.21,5.64-0.94c0,0,0.98-0.69,1.47-1.32C376.7,168.68,376.92,166.36,376.92,166.36z M363.78,163.84
			c0.42-1.56,1.38-2.78,2.9-3.66c1.52-0.88,3.05-1.11,4.61-0.7c1.55,0.41,2.79,1.31,3.72,2.68l-10.77,6.19
			C363.51,166.91,363.36,165.41,363.78,163.84z"/>
		<path d="M452.6,166.36l-0.88-0.16c-0.01,0.12-0.07,0.43-0.11,0.67c-0.4,2.09-1.76,3.26-1.76,3.26c-0.84,0.74-1.8,1.25-2.87,1.54
			c-1.07,0.29-2.19,0.28-3.36-0.03c-1.17-0.31-2.26-1.14-3.25-2.5l11.61-6.63c-1.02-1.98-2.53-3.24-4.54-3.78
			c-2.01-0.54-3.88-0.31-5.61,0.69c-1.73,0.99-2.84,2.42-3.33,4.27c-0.49,1.85-0.24,3.66,0.77,5.42c1,1.76,2.43,2.89,4.29,3.38
			l0.26,0.07c1.97,0.52,3.85,0.21,5.64-0.94c0,0,0.98-0.69,1.47-1.32C452.39,168.68,452.6,166.36,452.6,166.36z M439.46,163.84
			c0.42-1.56,1.38-2.78,2.9-3.66c1.52-0.88,3.05-1.11,4.61-0.7c1.55,0.41,2.79,1.31,3.72,2.68l-10.77,6.19
			C439.2,166.91,439.05,165.4,439.46,163.84z"/>
		<g>
			<g>
				<path d="M169.65,168.89c0,0.6-0.12,1.13-0.35,1.61c-0.23,0.47-0.55,0.87-0.94,1.2c-0.4,0.33-0.85,0.58-1.38,0.75
					c-0.52,0.17-1.08,0.26-1.68,0.26c-0.99,0-1.88-0.19-2.68-0.57c-0.8-0.38-1.46-0.93-1.98-1.67l0.52-0.35
					c0.97,1.35,2.36,2.03,4.17,2.03c0.42,0,0.85-0.07,1.29-0.2c0.43-0.14,0.83-0.34,1.19-0.61c0.36-0.27,0.65-0.61,0.87-1.01
					c0.22-0.41,0.33-0.87,0.33-1.39c0-0.62-0.14-1.12-0.42-1.51c-0.28-0.39-0.63-0.7-1.06-0.93c-0.43-0.23-0.89-0.42-1.41-0.57
					c-0.51-0.14-0.99-0.28-1.43-0.39c-0.48-0.14-0.94-0.29-1.36-0.45c-0.43-0.16-0.8-0.38-1.12-0.64s-0.57-0.58-0.75-0.97
					c-0.18-0.39-0.28-0.87-0.28-1.45c0-0.58,0.12-1.08,0.35-1.51c0.23-0.42,0.54-0.78,0.93-1.06s0.83-0.49,1.32-0.64
					c0.49-0.14,0.99-0.22,1.49-0.22c1.82,0,3.18,0.65,4.09,1.94l-0.55,0.32c-0.44-0.58-0.95-1.01-1.51-1.29
					c-0.56-0.28-1.24-0.42-2.03-0.42c-0.37,0-0.75,0.05-1.16,0.14c-0.41,0.1-0.78,0.26-1.12,0.48c-0.34,0.22-0.62,0.52-0.84,0.88
					s-0.33,0.81-0.33,1.33c0,0.58,0.09,1.04,0.28,1.39c0.18,0.35,0.44,0.63,0.77,0.84c0.33,0.21,0.72,0.39,1.19,0.54
					c0.46,0.15,0.98,0.29,1.54,0.42c0.52,0.14,1.03,0.29,1.52,0.48c0.49,0.18,0.93,0.41,1.3,0.68c0.38,0.27,0.68,0.61,0.9,1.01
					C169.54,167.79,169.65,168.29,169.65,168.89z"/>
				<path d="M165.3,172.85c-1,0-1.92-0.2-2.74-0.58c-0.82-0.38-1.51-0.96-2.04-1.71l-0.08-0.12l0.75-0.5l0.08,0.11
					c0.93,1.31,2.3,1.97,4.06,1.97c0.41,0,0.83-0.07,1.25-0.2c0.42-0.13,0.8-0.33,1.15-0.59c0.34-0.26,0.62-0.58,0.83-0.97
					c0.21-0.38,0.32-0.83,0.32-1.32c0-0.58-0.13-1.06-0.39-1.43c-0.27-0.37-0.61-0.67-1.01-0.89c-0.41-0.23-0.88-0.41-1.38-0.55
					c-0.51-0.14-0.99-0.27-1.43-0.39c-0.49-0.14-0.95-0.29-1.38-0.45c-0.44-0.17-0.82-0.39-1.15-0.66c-0.33-0.27-0.6-0.62-0.79-1.02
					c-0.19-0.4-0.29-0.91-0.29-1.51c0-0.6,0.12-1.13,0.36-1.57c0.24-0.44,0.57-0.81,0.97-1.1c0.4-0.29,0.86-0.51,1.36-0.66
					c0.51-0.15,1.02-0.22,1.53-0.22c1.85,0,3.27,0.67,4.2,2l0.09,0.12l-0.79,0.46l-0.07-0.1c-0.43-0.56-0.92-0.98-1.46-1.25
					c-0.54-0.27-1.2-0.41-1.97-0.41c-0.35,0-0.73,0.05-1.13,0.14c-0.39,0.09-0.75,0.25-1.07,0.46c-0.32,0.21-0.59,0.49-0.8,0.84
					c-0.21,0.34-0.31,0.77-0.31,1.26c0,0.55,0.09,1,0.26,1.33c0.17,0.33,0.41,0.59,0.72,0.79c0.32,0.21,0.7,0.38,1.15,0.52
					c0.46,0.14,0.97,0.28,1.53,0.42c0.53,0.14,1.05,0.3,1.54,0.48c0.5,0.19,0.95,0.42,1.34,0.7c0.39,0.28,0.71,0.64,0.94,1.06
					c0.23,0.42,0.35,0.95,0.35,1.57c0,0.62-0.12,1.18-0.36,1.67c-0.24,0.49-0.57,0.91-0.98,1.25c-0.41,0.34-0.89,0.6-1.42,0.78
					C166.49,172.76,165.91,172.85,165.3,172.85z M160.84,170.51c0.49,0.66,1.11,1.16,1.85,1.51c0.78,0.37,1.66,0.55,2.62,0.55
					c0.58,0,1.13-0.08,1.64-0.25c0.5-0.17,0.95-0.41,1.33-0.73c0.38-0.32,0.68-0.71,0.91-1.16s0.33-0.97,0.33-1.55
					c0-0.57-0.11-1.06-0.32-1.44c-0.21-0.38-0.5-0.71-0.86-0.97c-0.37-0.26-0.79-0.49-1.27-0.66c-0.48-0.18-0.99-0.34-1.51-0.47
					c-0.56-0.13-1.08-0.28-1.54-0.42c-0.47-0.15-0.89-0.33-1.22-0.55c-0.35-0.22-0.62-0.52-0.81-0.89
					c-0.19-0.37-0.29-0.85-0.29-1.46c0-0.54,0.12-1.02,0.35-1.4c0.23-0.38,0.53-0.69,0.88-0.93c0.35-0.23,0.74-0.4,1.16-0.5
					c0.42-0.1,0.82-0.15,1.19-0.15c0.81,0,1.51,0.15,2.09,0.43c0.55,0.27,1.04,0.69,1.48,1.23l0.31-0.18
					c-0.88-1.17-2.18-1.76-3.88-1.76c-0.48,0-0.97,0.07-1.45,0.21c-0.47,0.14-0.9,0.35-1.28,0.62c-0.37,0.27-0.67,0.61-0.89,1.01
					c-0.22,0.4-0.33,0.89-0.33,1.44c0,0.56,0.09,1.02,0.26,1.39c0.17,0.37,0.41,0.68,0.72,0.92c0.31,0.25,0.67,0.46,1.08,0.62
					c0.42,0.16,0.87,0.31,1.35,0.45c0.44,0.11,0.92,0.25,1.43,0.39c0.52,0.15,1,0.34,1.43,0.58c0.44,0.24,0.81,0.56,1.1,0.97
					c0.3,0.41,0.45,0.94,0.45,1.59c0,0.54-0.12,1.03-0.35,1.46c-0.23,0.42-0.54,0.78-0.91,1.06c-0.37,0.28-0.78,0.49-1.23,0.63
					c-0.45,0.14-0.89,0.21-1.33,0.21c-1.81,0-3.22-0.67-4.21-1.98L160.84,170.51z"/>
			</g>
		</g>
		<path d="M80.88,5.81v122.04h-5.21v-17.74c-3.25,5.97-7.97,10.71-14.16,14.24c-6.18,3.52-12.53,5.29-19.04,5.29
			c-10.74,0-19.88-3.77-27.42-11.31c-7.54-7.54-11.31-16.57-11.31-27.09c0-10.52,3.77-19.55,11.31-27.09
			c7.54-7.54,16.68-11.31,27.42-11.31c6.73,0,13.21,1.79,19.44,5.37c6.24,3.58,10.82,8.35,13.75,14.32V5.81H80.88z M8.96,91.32
			c0,9.17,3.25,17.09,9.76,23.76c6.51,6.67,14.34,10.01,23.51,10.01c9.17,0,17.08-3.34,23.76-10.01C72.66,108.41,76,100.51,76,91.4
			s-3.34-17.06-10.01-23.84c-6.67-6.78-14.56-10.17-23.68-10.17s-16.95,3.36-23.51,10.09C12.24,74.21,8.96,82.15,8.96,91.32z"/>
		<path d="M144.84,123.29v4.56H94.4l41.65-68.67H98.8v-4.56h46.54l-41.82,68.67H144.84z"/>
		<path d="M319.01,127.85h-5.21V54.63h5.21v14.81c5.53-11.07,14.97-16.6,28.31-16.6c9.11,0,16.76,3.15,22.94,9.44
			c6.18,6.29,9.27,13.94,9.27,22.94v42.63h-5.21V85.22c0-7.49-2.63-13.99-7.89-19.53c-5.26-5.53-11.63-8.3-19.12-8.3
			c-7.49,0-14.07,2.77-19.77,8.3c-5.7,5.53-8.54,12.04-8.54,19.53V127.85z"/>
		<path d="M450.96,25.01v4.56c-6.29,0-11.63,2.17-16.03,6.51s-6.59,9.82-6.59,16.43v42.8h22.78v4.56h-22.78v27.99h-5.21V52.51
			c0-8.03,2.71-14.62,8.14-19.77C436.7,27.59,443.26,25.01,450.96,25.01z"/>
		<path d="M399.48,37.29c-3.13,0-4.7-1.46-4.7-4.37c0-2.92,1.56-4.37,4.7-4.37c3.13,0,4.7,1.46,4.7,4.37
			C404.18,35.83,402.61,37.29,399.48,37.29z M402.07,55.11v72.74h-5.18V55.11H402.07z"/>
		<path d="M298.42,96.67l-4.72-0.89c-0.06,0.62-0.36,2.31-0.58,3.59c-2.15,11.23-9.44,17.51-9.44,17.51
			c-4.53,3.96-9.68,6.72-15.42,8.27c-5.75,1.56-11.76,1.5-18.06-0.18c-6.29-1.67-12.12-6.14-17.48-13.41l62.35-35.6
			c-5.47-10.66-13.6-17.43-24.4-20.3c-10.8-2.87-20.84-1.64-30.11,3.69c-9.28,5.33-15.24,12.98-17.89,22.94
			c-2.65,9.96-1.28,19.67,4.12,29.13c5.39,9.46,13.07,15.52,23.03,18.17l1.42,0.38c10.59,2.82,20.69,1.13,30.31-5.07
			c0,0,5.26-3.72,7.87-7.07C297.26,109.14,298.42,96.67,298.42,96.67z M227.83,83.16c2.23-8.38,7.43-14.94,15.59-19.68
			c8.16-4.73,16.41-5.99,24.74-3.77c8.34,2.22,15,7.02,19.99,14.41l-57.85,33.26C226.42,99.63,225.6,91.55,227.83,83.16z"/>
		<path d="M542.72,95.14L538,94.26c-0.06,0.62-0.36,2.31-0.58,3.59c-2.15,11.23-9.44,17.51-9.44,17.51
			c-4.53,3.96-9.68,6.72-15.42,8.27c-5.75,1.56-11.76,1.5-18.06-0.18c-6.29-1.67-12.12-6.14-17.48-13.41l62.35-35.6
			c-5.47-10.66-13.6-17.43-24.4-20.3c-10.8-2.87-20.84-1.64-30.11,3.69c-9.28,5.33-15.24,12.98-17.89,22.94
			c-2.65,9.96-1.28,19.67,4.12,29.13c5.39,9.46,13.07,15.52,23.03,18.17l1.42,0.38c10.59,2.82,20.69,1.13,30.31-5.07
			c0,0,5.26-3.72,7.87-7.07C541.56,107.62,542.72,95.14,542.72,95.14z M472.13,81.64c2.23-8.38,7.43-14.94,15.59-19.68
			c8.16-4.73,16.41-5.99,24.74-3.77c8.34,2.22,15,7.02,19.99,14.41l-57.85,33.26C470.73,98.1,469.9,90.03,472.13,81.64z"/>
		<path d="M205.04,100.28L205.04,100.28c-1.24-2.26-2.93-4.17-5.03-5.68c-2.06-1.48-4.47-2.74-7.16-3.74
			c-2.65-0.99-5.42-1.86-8.24-2.59c-2.95-0.71-5.7-1.46-8.19-2.24c-2.41-0.75-4.5-1.69-6.19-2.79c-1.64-1.06-2.94-2.48-3.86-4.23
			c-0.92-1.74-1.39-4.14-1.39-7.11c0-2.65,0.56-4.92,1.68-6.76c1.13-1.86,2.57-3.38,4.28-4.5c1.73-1.14,3.66-1.96,5.74-2.46
			c2.11-0.5,4.14-0.76,6.04-0.76c4.1,0,7.65,0.73,10.54,2.17c2.89,1.44,5.52,3.7,7.82,6.7l0.4,0.52l4.22-2.44l-0.46-0.66
			c-4.99-7.12-12.57-10.72-22.51-10.72c-2.75,0-5.51,0.4-8.21,1.2c-2.71,0.8-5.16,1.98-7.29,3.53c-2.15,1.56-3.89,3.55-5.19,5.92
			c-1.3,2.38-1.95,5.22-1.95,8.43c0,3.21,0.52,5.93,1.55,8.08c1.02,2.16,2.45,4,4.24,5.46c1.77,1.45,3.85,2.64,6.18,3.53
			c2.29,0.89,4.77,1.71,7.38,2.43c2.39,0.62,4.97,1.33,7.67,2.09c2.68,0.76,5.16,1.76,7.38,2.97c2.17,1.18,3.99,2.78,5.42,4.75
			c1.4,1.94,2.11,4.51,2.11,7.64c0,2.65-0.57,5.04-1.7,7.1c-1.14,2.07-2.64,3.82-4.46,5.2c-1.84,1.39-3.91,2.45-6.14,3.15
			c-2.24,0.7-4.49,1.05-6.69,1.05c-9.44,0-16.76-3.55-21.76-10.56l-0.42-0.58l-4.03,2.69l0.44,0.62c2.86,4.02,6.53,7.11,10.93,9.17
			c4.38,2.06,9.31,3.1,14.68,3.1c3.28,0,6.39-0.48,9.24-1.44c2.87-0.96,5.44-2.36,7.62-4.17c2.2-1.82,3.96-4.07,5.24-6.69
			c1.29-2.63,1.94-5.64,1.94-8.95C206.92,105.39,206.28,102.55,205.04,100.28z"/>
		<path d="M599.68,63.76l2.9-3.89c0,0-0.99-0.85-2.27-1.81l0-0.01c-0.07-0.05-0.14-0.1-0.21-0.15c-1.02-0.76-2.19-1.55-3.19-2.05
			c-3.62-2-7.37-3.01-11.24-3.01c-5.1,0-9.71,1.2-13.83,3.58c-4.12,2.39-7.16,5.42-9.11,9.11v-10.9h-5.21v73.22h5.21V79.04
			c0-5.75,2.2-10.79,6.59-15.13s9.46-6.51,15.22-6.51c0.82,0,1.61,0.03,2.38,0.1l-0.12,0c4.72,0.4,8.73,2.14,12.85,6.24
			C599.65,63.74,599.67,63.75,599.68,63.76L599.68,63.76C599.68,63.76,599.68,63.76,599.68,63.76L599.68,63.76z"/>
		<path d="M586.8,57.49c-0.74-0.06-1.49-0.09-2.26-0.09L586.8,57.49z"/>
		<path d="M463.52,160.5l0.54-0.73c0,0-0.19-0.16-0.43-0.34l0,0c-0.01-0.01-0.03-0.02-0.04-0.03c-0.19-0.14-0.41-0.29-0.6-0.38
			c-0.68-0.38-1.38-0.56-2.11-0.56c-0.96,0-1.82,0.22-2.59,0.67c-0.77,0.45-1.34,1.02-1.71,1.71v-2.05h-0.98v13.74h0.98v-9.16
			c0-1.08,0.41-2.02,1.24-2.84s1.78-1.22,2.85-1.22c0.15,0,0.3,0.01,0.45,0.02l-0.02,0C461.99,159.4,462.74,159.73,463.52,160.5
			C463.51,160.5,463.52,160.5,463.52,160.5L463.52,160.5C463.52,160.5,463.52,160.5,463.52,160.5L463.52,160.5z"/>
		<path d="M461.1,159.32c-0.14-0.01-0.28-0.02-0.42-0.02L461.1,159.32z"/>
		<path d="M209.16,160.49l0.54-0.73c0,0-0.19-0.16-0.43-0.34l0,0c-0.01-0.01-0.03-0.02-0.04-0.03c-0.19-0.14-0.41-0.29-0.6-0.38
			c-0.68-0.38-1.38-0.56-2.11-0.56c-0.96,0-1.82,0.22-2.59,0.67c-0.77,0.45-1.34,1.02-1.71,1.71v-2.05h-0.98v13.74h0.98v-9.16
			c0-1.08,0.41-2.02,1.24-2.84c0.82-0.81,1.78-1.22,2.85-1.22c0.15,0,0.3,0.01,0.45,0.02l-0.02,0
			C207.62,159.39,208.38,159.71,209.16,160.49C209.15,160.49,209.15,160.49,209.16,160.49L209.16,160.49
			C209.15,160.49,209.15,160.49,209.16,160.49L209.16,160.49z"/>
		<path d="M206.74,159.31c-0.14-0.01-0.28-0.02-0.42-0.02L206.74,159.31z"/>
	</g>
</g>
</svg>
