<?xml version="1.0" encoding="utf-8"?>
<!-- Generator: Adobe Illustrator 24.1.0, SVG Export Plug-In . SVG Version: 6.00 Build 0)  -->
<svg version="1.1" id="Layer_1" xmlns="http://www.w3.org/2000/svg" xmlns:xlink="http://www.w3.org/1999/xlink" x="0px" y="0px"
	 viewBox="0 0 720 720" style="enable-background:new 0 0 720 720;" xml:space="preserve">
<style type="text/css">
	.st0{fill:#FFFFFF;}
</style>
<g>
	<g>
		<path class="st0" d="M360,720C161.5,720,0,558.5,0,360S161.5,0,360,0s360,161.5,360,360S558.5,720,360,720z M360,21.4
			C173.3,21.4,21.4,173.3,21.4,360S173.3,698.6,360,698.6S698.6,546.7,698.6,360S546.7,21.4,360,21.4z"/>
	</g>
	<path class="st0" d="M464.5,531.4c0,0-7.9,9.7-11.2,12.7c-8.8,8.1-19.5,13.4-31.8,17c-24.6,7.6-59.3,4.8-83-3.3
		c-42.6-14.5-78.8-32.1-122.5-39.4V285.1l5-6.6v-9.9h-33v9.9l5,6.6v231.2l-8.1,2l0,0c-10,2.4-27.5,11.5-38.4,15.4l7.4,18.3
		c9.1-3.4,18.2-8,29.4-12.4c19.5-5.5,47.3,0.5,65.4,7.4c10.3,3.6,26.6,9.5,46.6,16.6c32.3,12.5,71.7,27.3,111.1,21.3
		c27.8-4.2,56.6-17.6,73.2-40.9h0.1l11.9-15.3L476,516.6L464.5,531.4z"/>
	<path class="st0" d="M573,290c-6.6-63.4-44-122.1-102.2-147.4c-3.3-1.6-19.4-7.5-24.4-7.7H340.7v10.6l4.6,11.7c0,0-0.3,61.6,0.3,92
		c-32,8.8-55,21-73.4,48.2c-32.8,52.8-20.8,121.6,30.4,157.7c58.6,43.9,143.4,39.4,202-4.8c11.9-10.4,32.7-30.6,40.7-43
		C566.8,371.9,577.1,332.3,573,290z M547.8,340.3c-19.4,105.4-146.5,158.4-232.9,95.8c-14.6-12.7-30.2-30.6-35.2-50.3
		c-11.2-43,9-90.2,49.4-106.8l16.5-6l-0.2,117.6l-5,6.6v9.9h33v-9.9l-5-6.6l0.2-119.8c0,0,8.4,0.2,10.9,0.6l0,0
		c34.6,5.3,59.6,33.5,64.4,69.3l0,0l2.3,23.2l22.8-2.3l-2.3-23.2h-0.1c-4.2-52-45.5-89.5-97.9-90.9l-0.1-89.3c0,0,71.3,0,79.7,0
		c15,4.8,22.1,9,29.7,13.6c10.1,6.6,11,7.9,22.8,17.6C540.5,227.4,559,286.6,547.8,340.3z"/>
</g>
</svg>
