<?xml version="1.0" encoding="utf-8"?>
<!-- Generator: Adobe Illustrator 24.1.0, SVG Export Plug-In . SVG Version: 6.00 Build 0)  -->
<svg version="1.1" id="Layer_1" xmlns="http://www.w3.org/2000/svg" xmlns:xlink="http://www.w3.org/1999/xlink" x="0px" y="0px"
	 viewBox="0 0 119.89 22.18" style="enable-background:new 0 0 119.89 22.18;" xml:space="preserve">
<style type="text/css">
	.st0{fill:#FFFFFF;}
</style>
<g>
	<path class="st0" d="M20.21,19.06c-1.31,1.07-2.66,1.86-4.04,2.36c-1.38,0.5-2.92,0.75-4.62,0.76c-1.62,0.01-3.13-0.27-4.54-0.84
		C5.6,20.77,4.38,20,3.35,19.02c-1.03-0.98-1.85-2.15-2.44-3.5c-0.6-1.35-0.9-2.81-0.91-4.37c-0.01-1.53,0.27-2.98,0.82-4.34
		c0.55-1.36,1.32-2.54,2.3-3.54c0.98-1,2.15-1.8,3.5-2.38S9.42,0.01,10.95,0c1.51-0.01,2.91,0.28,4.22,0.86
		c1.3,0.58,2.43,1.38,3.38,2.39c0.95,1.01,1.7,2.22,2.24,3.62c0.54,1.41,0.82,2.93,0.82,4.58l0.01,1.48L5.68,13.01
		c0.39,1.34,1.14,2.42,2.23,3.23c1.1,0.82,2.39,1.22,3.87,1.21c0.93,0,1.81-0.16,2.63-0.47c0.82-0.31,1.52-0.73,2.09-1.28
		L20.21,19.06z M10.85,4.64c-1.29,0.01-2.39,0.4-3.32,1.19C6.61,6.62,5.97,7.67,5.62,8.98l10.48-0.05
		c-0.36-1.26-1.02-2.29-1.97-3.09C13.18,5.04,12.09,4.64,10.85,4.64z"/>
	<path class="st0" d="M93.75,3.13c1.31-1.07,2.66-1.86,4.04-2.36c1.38-0.5,2.92-0.75,4.62-0.76c1.62-0.01,3.13,0.27,4.54,0.84
		c1.41,0.57,2.64,1.34,3.67,2.32c1.03,0.98,1.85,2.15,2.44,3.5c0.6,1.35,0.9,2.81,0.91,4.37c0.01,1.53-0.27,2.98-0.82,4.34
		c-0.55,1.36-1.32,2.54-2.3,3.54c-0.98,1-2.15,1.8-3.5,2.38c-1.35,0.58-2.8,0.88-4.33,0.88c-1.51,0.01-2.91-0.28-4.22-0.86
		c-1.3-0.58-2.43-1.38-3.38-2.39c-0.95-1.01-1.7-2.22-2.24-3.62c-0.54-1.41-0.82-2.93-0.82-4.58v0c0-0.82,0.65-1.48,1.47-1.49
		l14.46-0.07c-0.39-1.34-1.14-2.42-2.23-3.23c-1.1-0.82-2.39-1.22-3.87-1.21c-0.93,0-1.81,0.16-2.63,0.47
		c-0.82,0.31-1.52,0.73-2.09,1.28L93.75,3.13z M103.1,17.54c1.29-0.01,2.39-0.4,3.32-1.19c0.93-0.79,1.57-1.84,1.92-3.15l-9.46,0.05
		c-0.51,0-0.86,0.54-0.65,1c0.38,0.82,0.91,1.52,1.6,2.1C100.78,17.15,101.87,17.55,103.1,17.54z"/>
	<path class="st0" d="M23.57,21.71L23.46,0.7l5.52-0.03L29,2.25c0.75-0.65,1.58-1.14,2.49-1.48c0.91-0.34,1.91-0.51,2.98-0.52
		c1.34-0.01,2.56,0.26,3.65,0.81s1.99,1.31,2.69,2.3c0.83-1.03,1.83-1.81,3.01-2.35c1.18-0.54,2.48-0.82,3.91-0.83
		c2.34-0.01,4.26,0.76,5.78,2.31c1.51,1.55,2.28,3.55,2.29,6l0.07,13.06l-5.52,0.03L50.28,9.32C50.28,8,49.92,6.94,49.2,6.14
		s-1.68-1.2-2.89-1.2c-0.83,0-1.59,0.19-2.28,0.56s-1.27,0.89-1.75,1.56c0.03,0.24,0.06,0.48,0.08,0.73
		c0.03,0.24,0.04,0.5,0.04,0.77l0.07,13.06l-5.52,0.03L36.9,9.38c-0.01-1.32-0.37-2.38-1.08-3.18c-0.72-0.8-1.68-1.2-2.89-1.2
		c-0.83,0-1.57,0.17-2.22,0.5c-0.64,0.33-1.21,0.8-1.69,1.42l0.08,14.76L23.57,21.71z"/>
	<path class="st0" d="M58.49,21.76L58.38,0.63l5.54-0.03l0.01,1.58c0.75-0.65,1.58-1.15,2.5-1.49c0.91-0.34,1.91-0.52,2.99-0.52
		c1.35-0.01,2.57,0.26,3.66,0.81s1.99,1.32,2.7,2.32c0.83-1.03,1.84-1.82,3.02-2.37c1.18-0.55,2.49-0.82,3.92-0.83
		c2.34-0.01,4.27,0.76,5.79,2.32c1.52,1.56,2.28,3.57,2.29,6.03l0.07,13.14l-5.54,0.03L85.26,9.29c-0.01-1.32-0.37-2.39-1.09-3.2
		c-0.72-0.81-1.68-1.21-2.9-1.2c-0.84,0-1.6,0.19-2.28,0.56c-0.69,0.37-1.27,0.89-1.75,1.57c0.03,0.24,0.06,0.49,0.08,0.73
		c0.03,0.24,0.04,0.5,0.04,0.77l0.07,13.14l-5.54,0.03L71.84,9.36c-0.01-1.32-0.37-2.39-1.09-3.2c-0.72-0.81-1.68-1.21-2.89-1.2
		c-0.84,0-1.58,0.17-2.22,0.5c-0.65,0.33-1.21,0.8-1.69,1.43l0.08,14.84L58.49,21.76z"/>
	<path class="st0" d="M117.06,16.02c0.78,0,1.44,0.27,1.99,0.81c0.55,0.55,0.83,1.21,0.83,1.99c0,0.75-0.27,1.41-0.81,1.96
		c-0.55,0.55-1.21,0.83-1.99,0.83c-0.75,0-1.41-0.27-1.96-0.81c-0.55-0.55-0.83-1.2-0.83-1.95c0-0.78,0.27-1.44,0.81-1.99
		C115.65,16.3,116.31,16.03,117.06,16.02z"/>
</g>
<path d="M110.88,15.03"/>
</svg>
