<?xml version="1.0" encoding="utf-8"?>
<!-- Generator: Adobe Illustrator 24.1.0, SVG Export Plug-In . SVG Version: 6.00 Build 0)  -->
<svg version="1.1" xmlns="http://www.w3.org/2000/svg" xmlns:xlink="http://www.w3.org/1999/xlink" x="0px" y="0px"
	 viewBox="0 0 800 800" style="enable-background:new 0 0 800 800;" xml:space="preserve">
<style type="text/css">
	.st0{display:none;}
	.st1{display:inline;fill:#231F20;}
	.st2{fill:#FFFFFF;}
</style>
<g id="Background" class="st0">
	<rect class="st1" width="800" height="800"/>
</g>
<g id="Logo">
	<g>
		<g>
			<g>
				<path class="st2" d="M9.4,491.8h19.1v121.3H9.4V491.8z"/>
				<path class="st2" d="M80,525.3v87.8H62.9V491.8h23.9l19.6,72.6v-72.6h17v121.3h-19.6L80,525.3z"/>
				<path class="st2" d="M157.8,491.8H188c19.1,0,28.4,10.6,28.4,30v61.3c0,19.4-9.4,30-28.4,30h-30.1V491.8z M176.9,509.2v86.6
					h10.7c6.1,0,9.7-3.1,9.7-11.8v-63.1c0-8.7-3.6-11.8-9.7-11.8H176.9z"/>
				<path class="st2" d="M267.5,491.8v93.6c0,8.7,3.8,11.8,9.9,11.8c6.1,0,9.9-3.1,9.9-11.8v-93.6h18v92.3
					c0,19.4-9.7,30.5-28.4,30.5c-18.7,0-28.4-11.1-28.4-30.5v-92.3H267.5z"/>
				<path class="st2" d="M364.7,490.5c18.5,0,28.1,11.1,28.1,30.5v3.8h-18v-5c0-8.7-3.5-12-9.5-12c-6.1,0-9.5,3.3-9.5,12
					c0,24.9,37.2,29.6,37.2,64.3c0,19.4-9.7,30.5-28.4,30.5c-18.7,0-28.4-11.1-28.4-30.5v-7.4h18v8.7c0,8.7,3.8,11.8,9.9,11.8
					c6.1,0,9.9-3.1,9.9-11.8c0-24.9-37.2-29.6-37.2-64.3C336.6,501.5,346.1,490.5,364.7,490.5z"/>
				<path class="st2" d="M419.1,491.8H478v17.3h-19.9v103.9H439V509.2h-19.9V491.8z"/>
				<path class="st2" d="M546.9,613.1c-1-3.1-1.7-5-1.7-14.9v-19.1c0-11.3-3.8-15.4-12.5-15.4h-6.6v49.4h-19.1V491.8h28.8
					c19.8,0,28.2,9.2,28.2,27.9v9.5c0,12.5-4,20.6-12.5,24.6c9.5,4,12.6,13.2,12.6,25.8v18.7c0,5.9,0.2,10.2,2.1,14.7H546.9z
					 M526.1,509.2v37.2h7.4c7.1,0,11.4-3.1,11.4-12.8v-12c0-8.7-2.9-12.5-9.7-12.5H526.1z"/>
				<path class="st2" d="M597.5,491.8h19.1v121.3h-19.1V491.8z"/>
				<path class="st2" d="M670.3,542.9h26.2v17.3h-26.2v35.5h32.9v17.3h-52V491.8h52v17.3h-32.9V542.9z"/>
				<path class="st2" d="M761.4,490.5c18.5,0,28.1,11.1,28.1,30.5v3.8h-18v-5c0-8.7-3.5-12-9.5-12s-9.5,3.3-9.5,12
					c0,24.9,37.2,29.6,37.2,64.3c0,19.4-9.7,30.5-28.4,30.5c-18.7,0-28.4-11.1-28.4-30.5v-7.4h18v8.7c0,8.7,3.8,11.8,9.9,11.8
					c6.1,0,9.9-3.1,9.9-11.8c0-24.9-37.2-29.6-37.2-64.3C733.3,501.5,742.9,490.5,761.4,490.5z"/>
			</g>
		</g>
		<g>
			<polygon class="st2" points="145,413.3 182,413.3 125.9,316.1 175.1,247.8 135.8,247.8 81.8,329.8 81.8,247.8 50.6,247.8 
				50.6,413.3 81.8,413.3 81.8,377.4 105.6,344.5 			"/>
			<path class="st2" d="M225.3,405.9c-9-4.9-15.9-11.9-20.8-21c-4.9-9-7.4-19.5-7.4-31.4v-46c0-11.9,2.5-22.4,7.4-31.4
				c4.9-9,11.8-16,20.8-21c9-4.9,19.3-7.4,31.1-7.4c11.7,0,22.1,2.5,31.1,7.4c9,4.9,15.9,11.9,20.8,21c4.9,9,7.4,19.5,7.4,31.4v46
				c0,11.9-2.5,22.4-7.4,31.4s-11.8,16-20.8,21c-9,4.9-19.3,7.4-31.1,7.4C244.6,413.3,234.2,410.8,225.3,405.9z M270.8,379.2
				c4.2-2.3,7.4-5.7,9.6-10c2.3-4.3,3.4-9.3,3.4-14.9v-47.5c0-5.7-1.1-10.6-3.4-14.9c-2.3-4.3-5.5-7.6-9.6-10
				c-4.2-2.3-9-3.5-14.5-3.5c-5.5,0-10.3,1.2-14.5,3.5c-4.2,2.3-7.4,5.7-9.6,10c-2.3,4.3-3.4,9.3-3.4,14.9v47.5
				c0,5.7,1.1,10.6,3.4,14.9c2.3,4.3,5.5,7.6,9.6,10c4.2,2.3,9,3.5,14.5,3.5C261.8,382.7,266.7,381.6,270.8,379.2z"/>
			<path class="st2" d="M338.1,247.8h32.1l35.2,110.4l35.2-110.4h32.1l-55.1,165.5h-24.4L338.1,247.8z"/>
			<path class="st2" d="M582.3,413.3h33.6l-63.3-165.5h-19.8l-63.3,165.5h33.6l9.3-26.5H573L582.3,413.3z M522.9,356.7l19.8-56.5
				l19.8,56.5H522.9z"/>
			<path class="st2" d="M712.2,370.4c-2.5,3.8-5.5,6.7-9.1,8.7c-3.6,2-7.5,3-11.9,3c-5.8,0-10.7-1.2-14.7-3.5
				c-4-2.4-7.1-5.8-9.2-10.3c-2.1-4.5-3.2-10-3.2-16.3v-44.6c0-6.4,1.1-11.8,3.2-16.3c2.1-4.5,5.2-8,9.2-10.3
				c4-2.4,8.9-3.5,14.7-3.5c4.4,0,8.4,1,11.9,3c3.6,2,6.6,4.9,9.1,8.7c2.5,3.8,4.4,8.4,5.6,13.8h31.8c-2-11.9-5.7-22-10.9-30.4
				c-5.3-8.4-11.9-14.8-20-19.2c-8.1-4.4-17.2-6.6-27.5-6.6c-12.4,0-23,2.4-31.8,7.2c-8.8,4.8-15.5,11.7-20.2,20.8
				c-4.6,9.1-7,20.1-7,32.9v44.7c0,12.9,2.3,23.8,7,32.9c0.1,0.3,0.3,0.5,0.4,0.7c4.6,8.7,11.2,15.4,19.7,20
				c8.8,4.8,19.4,7.2,31.8,7.2c10.2,0,19.4-2.2,27.5-6.6c8.1-4.4,14.7-10.8,20-19.2c5.3-8.4,8.9-18.6,10.9-30.4h-31.8
				C716.6,361.9,714.7,366.5,712.2,370.4z"/>
			<polygon class="st2" points="731.1,202.9 719.3,191.2 719.3,191.2 714.4,186.3 690.9,204 674.1,191.4 667.4,186.3 658.1,195.6 
				650.7,202.9 668.3,216.1 690.9,233.1 711.7,217.5 711.7,217.5 			"/>
			<polygon class="st2" points="734.1,191.2 746.9,204.1 729.1,217.5 773.8,217.5 773.8,441.2 26.2,441.2 26.2,217.5 652.7,217.5 
				634.9,204.1 647.7,191.2 0,191.2 0,467.4 800,467.4 800,191.2 			"/>
		</g>
	</g>
</g>
</svg>
