<svg id="Layer_1" data-name="Layer 1" xmlns="http://www.w3.org/2000/svg" viewBox="0 0 172.51 265.29"><defs><style>.cls-1{fill:#fff;}</style></defs><title>G_Brunot_logo</title><circle class="cls-1" cx="129.56" cy="24.47" r="24.47"/><path class="cls-1" d="M42.67,137.1c12.91,4.41,27.18,7,38.73,7,43.42,0,75-20,75-48,0-22.78-32.8-42.21-65.9-42.21H89.6c-28.86-1.22-78.36,14-78.36,47.68,0,17.92,15.18,30.06,30.37,34.92ZM82.61,55c14.88,0,22.47,16.25,22.47,44.8,0,16.7-.3,43.27-20.34,43.27-15.49,0-22.48-15.33-22.48-45.4C62.26,68.16,67.73,55,82.61,55Z"/><path class="cls-1" d="M102.35,161.4c-10,0-22.78.61-31.58.61-26.33,0-40.66-4.29-41-11.16A4,4,0,0,0,27,147a4.23,4.23,0,0,0-3.6.61C8.8,158,0,168.83,0,180.84c0,31,35.84,35.53,66.21,35.53,14,0,26.73-.61,34.62-.61,24.3,0,37.81,8.2,37.81,22.48,0,8.68-4.6,16.43-12.94,22.49a2.56,2.56,0,0,0-.72,3.36h0a2.37,2.37,0,0,0,2.93,1c27.41-11,44.6-30.69,44.6-57C172.51,168.08,133,161.4,102.35,161.4Z"/><circle class="cls-1" cx="23.58" cy="240.78" r="22.27"/></svg>