<?xml version="1.0" encoding="utf-8"?>
<!-- Generator: Adobe Illustrator 24.1.0, SVG Export Plug-In . SVG Version: 6.00 Build 0)  -->
<svg version="1.1" id="Layer_1" xmlns="http://www.w3.org/2000/svg" xmlns:xlink="http://www.w3.org/1999/xlink" x="0px" y="0px"
	 viewBox="0 0 67.48 24.53" style="enable-background:new 0 0 67.48 24.53;" xml:space="preserve">
<style type="text/css">
	.st0{fill:#FFFFFF;}
</style>
<path class="st0" d="M52.53,18.91c-0.13,0.83-0.51,1.51-1.12,2.04c-0.61,0.53-1.31,0.8-2.08,0.8c-0.48,0-0.85-0.08-1.12-0.24
	c-0.27-0.16-0.46-0.37-0.58-0.64c-0.12-0.27-0.19-0.55-0.22-0.86c-0.03-0.31-0.04-0.62-0.04-0.94V8.54h3.36V6.7
	c-0.24,0.07-0.51,0.15-0.82,0.19c-0.33,0.04-0.65,0.09-1.02,0.09h-1.52V1.06l-1.24,0.16c-0.32,1.52-0.85,2.86-1.6,4.02
	c-0.75,1.16-1.73,1.86-2.96,2.1l-0.16,1.2H44v11.41c0,1.39,0.38,2.4,1.14,3.02c0.76,0.63,1.79,0.94,3.1,0.94
	c0.83,0,1.54-0.11,2.14-0.34c0.6-0.23,1.1-0.55,1.5-0.96c0.4-0.41,0.72-0.91,0.96-1.48c0.24-0.57,0.44-1.21,0.6-1.9L52.53,18.91z"/>
<path class="st0" d="M56.45,13.2c-0.59,0-0.88-0.16-0.88-0.48c0-0.64,0.09-1.26,0.28-1.86c0.19-0.6,0.46-1.13,0.82-1.6
	c0.36-0.47,0.79-0.84,1.3-1.12c0.51-0.28,1.07-0.42,1.68-0.42c1.15,0,2.02,0.38,2.62,1.14c0.6,0.76,0.94,1.65,1.02,2.66
	c0,1.12-0.55,1.68-1.64,1.68H56.45z M66.22,18.8c-0.61,0.85-1.33,1.6-2.14,2.24c-0.81,0.64-1.78,0.96-2.9,0.96
	c-0.86,0-1.63-0.18-2.32-0.54c-0.69-0.36-1.28-0.86-1.76-1.5c-0.48-0.64-0.86-1.39-1.12-2.24c-0.27-0.85-0.4-1.76-0.4-2.72
	c0-0.4,0.25-0.6,0.76-0.6h10.65c0.08-0.27,0.12-0.56,0.12-0.88c-0.16-1.55-0.49-2.8-1-3.74c-0.51-0.95-1.11-1.67-1.8-2.18
	s-1.44-0.85-2.22-1.02c-0.79-0.17-1.54-0.26-2.26-0.26c-1.18,0-2.24,0.25-3.2,0.76c-0.96,0.51-1.78,1.19-2.46,2.04
	c-0.68,0.85-1.21,1.83-1.58,2.92c-0.37,1.1-0.56,2.24-0.56,3.44s0.17,2.34,0.52,3.4c0.35,1.07,0.86,1.99,1.54,2.76
	c0.68,0.77,1.53,1.39,2.54,1.84c1.01,0.45,2.19,0.68,3.52,0.68c1.6,0,2.99-0.41,4.16-1.24c1.17-0.83,2.11-1.99,2.8-3.48L66.22,18.8z
	 M38.89,2.87c0-1.52-0.72-2.28-2.16-2.28c-1.27,0-2.31,1.11-2.28,2.38c0.03,1.56,0.74,2.34,2.12,2.34
	C38.12,5.31,38.89,4.5,38.89,2.87 M42.15,23.57v-1.2c-2.03,0-3.04-0.76-3.04-2.28V6.48L33.3,7.72V8.8c1.63,0,2.44,1.05,2.44,3.16
	v7.97c0,1.63-0.92,2.44-2.76,2.44v1.2H42.15z M26.26,18.37c-0.08,0.45-0.21,0.91-0.38,1.36c-0.17,0.45-0.42,0.87-0.72,1.24
	c-0.31,0.37-0.71,0.67-1.21,0.9c-0.5,0.23-1.12,0.34-1.87,0.34c-1.69,0-2.54-0.87-2.54-2.6c0-0.83,0.19-1.52,0.58-2.08
	c0.39-0.56,0.9-1.02,1.53-1.38c0.63-0.36,1.35-0.64,2.15-0.84c0.81-0.2,1.62-0.34,2.46-0.42V18.37z M32.07,21.57
	c-0.4,0.29-0.81,0.44-1.24,0.44c-0.91,0-1.36-0.49-1.36-1.48v-8.69c0-1.92-0.47-3.3-1.41-4.12c-0.94-0.83-2.52-1.24-4.74-1.24
	c-0.71,0-1.43,0.09-2.11,0.28c-0.92,0.26-1.72,0.63-2.41,1.1c-0.6,0.41-1.09,0.9-1.47,1.46c-0.38,0.56-0.56,1.15-0.56,1.76
	c0,0.61,0.16,1.07,0.48,1.36c0.32,0.29,0.71,0.44,1.16,0.44c1.23,0,1.84-0.51,1.84-1.52c0-0.24-0.04-0.47-0.12-0.7
	c-0.08-0.23-0.2-0.39-0.36-0.5c0-0.83,0.32-1.39,0.97-1.68c0.64-0.29,1.41-0.44,2.3-0.44c2.04,0,3.06,1.31,3.06,3.92v1.56
	c-6.62,1.2-9.93,3.44-9.93,6.73c0,1.31,0.33,2.26,1,2.86c0.67,0.6,1.71,0.9,3.12,0.9c2.16,0,4.2-0.87,6.12-2.6
	c0.4,1.74,1.36,2.6,2.88,2.6c1.74,0,2.8-0.71,3.2-2.12L32.07,21.57z M13.73,19.61c-1.07,1.6-2.5,2.4-4.28,2.4
	c-0.93,0-1.74-0.19-2.4-0.58c-0.67-0.39-1.22-0.92-1.64-1.6c-0.43-0.68-0.75-1.49-0.96-2.41c-0.21-0.92-0.32-1.92-0.32-2.99
	c0-0.75,0.09-1.52,0.26-2.33c0.17-0.8,0.44-1.53,0.8-2.19C5.55,9.25,6,8.71,6.55,8.3C7.1,7.88,7.76,7.68,8.53,7.68
	c0.53,0,1.05,0.12,1.54,0.36c0.49,0.24,0.74,0.63,0.74,1.17c0,0.22-0.02,0.46-0.06,0.73c-0.04,0.27-0.06,0.45-0.06,0.53
	c0,1.21,0.55,1.82,1.64,1.82c0.53,0,1.03-0.19,1.48-0.58c0.45-0.39,0.68-0.85,0.68-1.38c0-0.56-0.15-1.08-0.44-1.56
	c-0.29-0.48-0.69-0.89-1.18-1.22c-0.49-0.33-1.05-0.59-1.68-0.78c-0.63-0.19-1.26-0.28-1.9-0.28c-1.5,0-2.8,0.25-3.9,0.74
	C4.28,7.71,3.36,8.38,2.63,9.24s-1.28,1.84-1.64,2.96s-0.54,2.31-0.54,3.56c0,1.2,0.17,2.32,0.5,3.36c0.33,1.04,0.82,1.95,1.46,2.72
	c0.64,0.77,1.43,1.38,2.36,1.82c0.93,0.44,1.99,0.66,3.16,0.66c0.64,0,1.31-0.08,2-0.24c0.69-0.16,1.35-0.41,1.98-0.74
	c0.63-0.33,1.19-0.76,1.7-1.28c0.51-0.52,0.89-1.14,1.16-1.86L13.73,19.61z"/>
</svg>
