<?xml version="1.0" encoding="utf-8"?>
<!-- Generator: Adobe Illustrator 24.1.0, SVG Export Plug-In . SVG Version: 6.00 Build 0)  -->
<svg version="1.1" id="Layer_1" xmlns="http://www.w3.org/2000/svg" xmlns:xlink="http://www.w3.org/1999/xlink" x="0px" y="0px"
	 viewBox="0 0 360 93" style="enable-background:new 0 0 360 93;" xml:space="preserve">
<style type="text/css">
	.st0{fill:#FFFFFF;}
</style>
<path class="st0" d="M11.2,79.8v-0.6c2.8,0,4.1-1.9,4.1-5V35c0-2.7-1.2-3.7-3.8-3.7l-0.3-0.6c6.5,0,12.9-1.2,19-3.4l0.5,5.4
	c3.4-1.7,6-5.5,11.5-5.4c7.8,0,12.9,7,12.9,15.8c0,13.1-8,20.5-21.9,20.5c-0.8,0-1.7-0.1-2.5-0.1v10.7c0,3.1,1.2,5,4,5v0.6
	L11.2,79.8z M30.7,33.4V56c0,4.8,1.5,7.2,3.6,7.2c2.5,0,4.4-4.4,4.4-17.1c0-11.5-2.4-14.3-4.2-14.3C33.1,31.8,32.5,32.6,30.7,33.4z"
	/>
<path class="st0" d="M94.9,56.2c0,3.6,1.2,4.5,2.7,4.5c0.8-0.1,1.5-0.5,2-1.1l0.3,0.2c-1.3,2.3-4.8,3.7-9,3.7c-3.7,0-7.2-1-9.1-3.9
	c-3.2,0.8-6.9,4.1-13,4.1c-5,0-9.4-2.2-9.4-7.6c0-7.1,7.5-11.4,21.1-11.4c0,0,0.4-4.8,0.4-10.1c0-4.8-1-6.8-3.6-6.8
	s-3.9,2.3-3.9,5.2c0,2.3,0.7,4.5,2,6.3c-2.2,1.5-4.8,2.4-7.4,2.4c-3.8,0-6.2-2.2-6.2-5.3c0-5.9,9.5-9.1,18-9.1
	c12,0,15.9,4.5,15.9,14.1C95.6,48.1,94.9,51.3,94.9,56.2z M80.1,51.1c0-1.9,0.1-3.8,0.3-5.7c-3.8,0.8-5.5,4.8-5.5,9.4
	c0,3.2,1,5.2,3.1,5.2c1.2-0.1,2.4-0.5,3.5-1C81.5,59.1,80.1,57.2,80.1,51.1z"/>
<path class="st0" d="M125,62.4c0,0-3.3-0.2-10.4-0.2s-11.8,0.2-11.8,0.2v-0.6c2.7,0,4-1.9,4-4.9V17.6c0-2.7-1.2-3.6-3.7-3.6
	l-0.3-0.6c6.7,0,13.3-1.2,19.5-3.4v49.2c0,2.1,1.2,2.7,2.7,2.7L125,62.4z"/>
<path class="st0" d="M170,44.8c0,9.6-7.8,19-21.8,19c-10.8,0-19.7-6.7-19.7-17.4c0-9.6,8-19,21.9-19C161.1,27.5,170,34.2,170,44.8z
	 M153.6,46.2c0-11.2-2.1-18.2-4.9-18.2c-2.4,0-3.9,4.5-3.9,17.1c0,11.2,2.2,18.2,5,18.2C152.1,63.3,153.6,58.8,153.6,46.2z"/>
<path class="st0" d="M222.1,35.5c0-2-0.8-3.1-2.6-3.1c-1.1,0-3.3,1.3-4.3,1.5c0.2,0.7,0.2,1.5,0.2,2.2v23c0,2.1,1.2,2.7,2.7,2.7v0.6
	c0,0-3.4-0.2-10.4-0.2s-10.4,0.2-10.4,0.2v-0.6c1.9,0,2.6-0.9,2.6-3.3v-23c0-2-1.1-3.1-2.5-3.1s-2.2,0.5-4.1,1v25.7
	c0,2.1,1.2,2.7,2.7,2.7v0.6c0,0-3.4-0.2-10.4-0.2s-11.8,0.2-11.8,0.2v-0.6c2.7,0,4-1.9,4-4.9V35.2c0-2.7-1.2-3.7-3.7-3.7l-0.3-0.6
	c6.6-0.1,13.2-1.2,19.5-3.4v5.4c4.1-1.5,7.8-5.5,13.3-5.4c4.5,0,7.4,2.5,8.5,5.9c4.8-1.5,7.4-5.9,13.7-5.9c5.5,0,8.8,3.4,8.8,9.9
	v20.8c0,3.2,1.1,3.7,3.9,3.7v0.6c0,0-4.7-0.2-11.6-0.2c-6.4,0-10.4,0.2-10.4,0.2v-0.6c2,0,2.7-0.9,2.7-3.3L222.1,35.5z"/>
<path class="st0" d="M287.7,43.3c0,11.8-8.5,20.5-22,20.5c-4.3,0-8.5-1.2-12.1-3.4L246,63l-0.3-0.5c1.8-1.7,2-4.6,2-7.9V17.8
	c0-2.7-1.2-3.6-3.7-3.6l-0.3-0.6c6.7-0.1,13.2-1.2,19.5-3.5V33c3.4-1.8,6.1-5.5,11.5-5.5C282.6,27.5,287.7,34.5,287.7,43.3z
	 M263.3,33.5v22.6c0,4.8,1.4,7.2,3.5,7.2c2.7,0,4.4-4.4,4.4-17.1c0-11.5-2.4-14.3-4.3-14.3C265.7,31.9,265,32.8,263.3,33.5
	L263.3,33.5z"/>
<path class="st0" d="M334.6,44.9c0,9.7-7.8,19-21.8,19c-10.7,0-19.7-6.7-19.7-17.3c0-9.6,8-19,21.9-19
	C325.7,27.6,334.6,34.3,334.6,44.9z M318.2,46.3c0-11.2-2.1-18.2-4.9-18.2c-2.4,0-3.9,4.5-3.9,17.1c0,11.2,2.2,18.2,5,18.2
	C316.7,63.4,318.2,59,318.2,46.3z"/>
<path class="st0" d="M338,56.5c0-4.1,2.5-7.4,7.5-7.4s7.5,3.3,7.5,7.4s-2.6,7.3-7.6,7.3S338,60.7,338,56.5z"/>
</svg>
