<svg xmlns="http://www.w3.org/2000/svg" viewBox="0 0 225.71 105.18"><defs><style>.cls-1{fill:#fff;}.cls-2{fill:none;}</style></defs><title>logo_final</title><g id="Isolation_Mode" data-name="Isolation Mode"><path class="cls-1" d="M0,89.63l109.74,15.56,116-15.54v-67L109.73,0,0,22.71ZM7.81,28.52,109.72,7.32l.15,0L218.53,28.61V83.37l-.69.09L109.74,97.93h-.11L7.18,83.39V28.65Z"/><polygon class="cls-1" points="85.41 80.21 109.52 86.97 133.64 80.21 85.41 80.21"/><polygon class="cls-2" points="102.37 27.34 102.57 27.1 101.14 22.97 100.96 22.21 100.92 22.99 100.33 27.3 100.56 27.5 102.37 27.34"/><path class="cls-2" d="M117.05,26.57l-.33,0-1.06.92-.25.43-.29,3.67.31,1.28c1,.09,2,.2,3,.33l-.07-1.58Z"/><path class="cls-2" d="M103.69,30.47l-.24-.2-3.38.3-.19.24-.15,1.25.27,1.2q2-.28,4-.45l.06-1.15Z"/><path class="cls-2" d="M60.93,47.05c-1,0-2,0-3-.08-.61,0-.78.22-.77.73,0,1.06,0,2.13,0,3.2v3.34c0,.43.17.67.69.66,1,0,2,0,3.05,0A2,2,0,0,0,63.14,53q.09-2,0-4C63.08,47.81,62.26,47.13,60.93,47.05Z"/><path class="cls-2" d="M196.47,50.52c0-.72,0-1.45,0-2.16a2,2,0,0,0-2.22-2.08c-1,0-2.08.07-3.12.08-.48,0-.65.21-.64.66q0,3.6,0,7.19c0,.45.18.64.66.63,1,0,2,0,3,0a2.21,2.21,0,0,0,2.37-2.29c0-.67,0-1.34,0-2Z"/><path class="cls-1" d="M118.31,41.72c-2.91,0-5.81,0-8.72,0-.78,0-.83.11-.65.77a12.76,12.76,0,0,1,.7,3c.1,2.91,0,5.83,0,8.74a4.62,4.62,0,0,1-.08.65,1.78,1.78,0,0,1-.7-.69c-2.29-3.9-4.59-7.81-6.86-11.74a1.45,1.45,0,0,0-1.47-.77c-3,0-6.08,0-9.13-.09-.89,0-.86,0-.72.76a23.4,23.4,0,0,1,.63,4.1c.07,6.52,0,13,0,19.55A11.63,11.63,0,0,1,91,68.18c-.13.63-.3,1.25-.47,1.93,3.48,0,6.85-.1,10.31-.12-.07-.36-.13-.66-.18-1a24.5,24.5,0,0,1-.54-3.47c-.07-3.46,0-6.92,0-10.37v-.84l.26-.06.43.68c2.82,4.81,5.66,9.58,8.45,14.38a1.3,1.3,0,0,0,1.36.66c2.19,0,4.37,0,6.56,0,1.15,0,1.15,0,1.15-.94,0-7,0-14,0-21a13.77,13.77,0,0,1,.71-5.57C119.24,42,119.05,41.72,118.31,41.72Z"/><path class="cls-1" d="M150.94,41.25c-2.88.1-5.76.14-8.64.21-.85,0-.89.11-.7.81a14.07,14.07,0,0,1,.7,3.09c.09,2.93,0,5.86,0,8.79,0,.23,0,.46-.06.7l-.22,0c-.19-.3-.4-.58-.57-.88Q138,48.1,134.63,42.26a1.16,1.16,0,0,0-1.19-.67c-3.15.07-6.3.1-9.45.11-.69,0-.78.2-.65.73a15.94,15.94,0,0,1,.65,3.51c.07,6.62.05,13.24,0,19.86a13.78,13.78,0,0,1-.37,2.36c-.11.6-.28,1.19-.43,1.83,3.47,0,6.82.06,10.33.11-.1-.42-.17-.74-.24-1.07a14.36,14.36,0,0,1-.51-2.63c-.06-3.81,0-7.62,0-11.43a5.1,5.1,0,0,1,.08-.67,2,2,0,0,1,.61.68c2.82,4.83,5.65,9.7,8.45,14.64a1.28,1.28,0,0,0,1.29.7c2.24,0,4.48.08,6.72.13,1,0,1.05,0,1.05-.89q0-10.76,0-21.51a15.37,15.37,0,0,1,.72-6C151.9,41.46,151.66,41.22,150.94,41.25Z"/><path class="cls-1" d="M206.07,72.44c-2.12-3.13-3.08-6.63-4.32-10a1.18,1.18,0,0,1,.32-1.47c1.18-1.07,2.28-2.25,3.46-3.35a1.7,1.7,0,0,0,.51-1.77,37.55,37.55,0,0,1-.56-4.48,22.63,22.63,0,0,1,.59-7,1.44,1.44,0,0,0-.36-1.16c-.89-.94-2-1.72-2.79-2.68a4.17,4.17,0,0,0-3.83-1.33c-5.86.43-11.73.68-17.6,1-1,0-1,.08-.76.83a14.47,14.47,0,0,1,.74,3.4c.07,7.61,0,15.22,0,22.83a6.38,6.38,0,0,1-.2,1.37c-.2,1-.44,1.88-.68,2.88,3.62.16,7.14.34,10.73.53,0-.24-.06-.41-.1-.58a21.45,21.45,0,0,1-.73-3.28c-.11-2,0-4.09,0-6.13a.6.6,0,0,1,.17-.46,1.58,1.58,0,0,1,2,.69l.54,1.69c.8,2.44,1.77,4.88,1.72,7.49,0,.7.28.86.95.89,3.17.15,6.35.36,9.52.55a7,7,0,0,0,.78,0A1.47,1.47,0,0,0,206.07,72.44Zm-9.6-19.91a2.21,2.21,0,0,1-2.37,2.29c-1,0-2,0-3,0-.48,0-.66-.18-.66-.63q0-3.59,0-7.19c0-.45.16-.65.64-.66,1,0,2.09-.08,3.12-.08a2,2,0,0,1,2.22,2.08c0,.71,0,1.44,0,2.16h0C196.48,51.19,196.5,51.86,196.47,52.53Z"/><path class="cls-1" d="M42.94,55.57c-1.26-1.07-2.41-2.25-3.67-3.34a2.48,2.48,0,0,0-1.38-.56c-2.29-.08-4.59-.09-6.88-.12a2,2,0,0,1-1.9-1,1.8,1.8,0,0,1,1.81-2.58c2.53,0,5.06.1,7.59.21a9.08,9.08,0,0,1,2,.43c.69.19,1.35.46,2.15.73a3.2,3.2,0,0,0,0-.47q-.9-4.07-1.8-8.17c-.12-.58-.46-.76-1.07-.79-4.9-.22-9.81-.51-14.71-.76a2,2,0,0,0-1.25.45c-1.3,1.12-2.52,2.34-3.82,3.5a1.35,1.35,0,0,0-.43,1.46,33.11,33.11,0,0,1,.59,3.79,19,19,0,0,1-.62,6.4A1.2,1.2,0,0,0,20,56c1.29,1.23,2.52,2.5,3.83,3.68a2.2,2.2,0,0,0,1.32.5c2.27,0,4.53,0,6.8-.07a2.14,2.14,0,0,1,1.94.83c.85,1.23-.05,2.71-1.71,2.79-2.45.1-4.91.2-7.36.19a22.25,22.25,0,0,1-3.43-.46A15.81,15.81,0,0,1,19.67,63a3.29,3.29,0,0,0,0,.46c.6,2.9,1.21,5.78,1.8,8.64.11.52.36.71.92.68,5.23-.34,10.45-.62,15.68-.91a2,2,0,0,0,1.11-.48c1.24-1.15,2.4-2.37,3.66-3.47A1.69,1.69,0,0,0,43.41,66a38.36,38.36,0,0,1-.55-3.85,14.11,14.11,0,0,1,.57-5A1.36,1.36,0,0,0,42.94,55.57Z"/><path class="cls-1" d="M72.49,44.88c-1.34-1.1-2.63-2.27-4-3.4a2,2,0,0,0-1-.41c-6.51-.22-13-.45-19.53-.74-.6,0-.72.16-.57.69a13.7,13.7,0,0,1,.78,3.43c.08,7.6.06,15.19.06,22.79A8,8,0,0,1,48,68.82c-.17.83-.38,1.66-.59,2.55,3.61-.16,7.11-.3,10.67-.43,0-.23-.08-.39-.11-.54-.24-1.51-.56-3-.7-4.53-.12-1.27,0-2.56-.05-3.83,0-.74.25-.94,1-.94,3,0,6,0,9.05-.11a2.36,2.36,0,0,0,1.32-.48c1.2-1,2.28-2,3.5-3a1.66,1.66,0,0,0,.63-2,16.76,16.76,0,0,1-.5-3.12,17.25,17.25,0,0,1,.57-6.27A1,1,0,0,0,72.49,44.88ZM63.14,53A2,2,0,0,1,61,54.89c-1,0-2,0-3.05,0-.52,0-.72-.23-.69-.66V50.9c0-1.07,0-2.14,0-3.2,0-.51.16-.75.77-.73,1,0,2,0,3,.08,1.33.08,2.15.76,2.21,1.93Q63.23,51,63.14,53Z"/><path class="cls-1" d="M176.26,62.29a15.94,15.94,0,0,1-3.41.86c-2.39.1-4.79,0-7.19-.07-.49,0-.67-.18-.66-.6,0-1,0-2.06,0-3.1,0-.64.19-.85.94-.84a23.44,23.44,0,0,1,6.41.64c.91.27,1,.14,1-.7V53.15c0-.8-.06-.84-.91-.61a23.56,23.56,0,0,1-6.8.7c-.44,0-.65-.15-.64-.54,0-1.17,0-2.34,0-3.52,0-.42.21-.59.69-.59,1,0,2.08-.05,3.12,0,1.78,0,3.57,0,5.34.11a18.73,18.73,0,0,1,3,.69,3.42,3.42,0,0,0,0-.72c-.6-2.54-1.23-5.07-1.81-7.59-.11-.49-.38-.59-.87-.57q-9.12.39-18.25.64c-.75,0-.82.24-.65.81a11.85,11.85,0,0,1,.63,3c0,7.29,0,14.57,0,21.86a4.49,4.49,0,0,1-.11,1c-.21.91-.46,1.81-.72,2.83l1,0c2.19.06,4.37.13,6.56.21q5.76.19,11.52.42c.35,0,.75.16.86-.36.61-2.73,1.25-5.48,1.87-8.24a2.93,2.93,0,0,0,0-.73C176.83,62.07,176.56,62.2,176.26,62.29Z"/><path class="cls-1" d="M85.75,65.86c-.06-6,0-11.91,0-17.86,0-1.93-.16-3.87.67-5.71.22-.5,0-.8-.7-.8-2.91,0-5.82-.1-8.73-.18-.67,0-.83.14-.63.72a13,13,0,0,1,.78,4.43c-.06,6.55,0,13.1,0,19.65a13.93,13.93,0,0,1-.44,2.62c-.11.55-.29,1.09-.44,1.67,3.5-.09,6.87-.16,10.35-.22-.09-.39-.17-.7-.23-1A20.92,20.92,0,0,1,85.75,65.86Z"/><path class="cls-1" d="M93.65,31.3l-.48-.93-2.48-8.72,0-1.72-4.86,1.38L87,22.93l2,7.15a1.28,1.28,0,0,1,0,.55l0,.23a1.27,1.27,0,0,1-.37.68l-.15.14A1.3,1.3,0,0,1,88,32a1.24,1.24,0,0,1-.94-.12l-.31-.39-.4-.84-2.66,2.46.08.29a3.1,3.1,0,0,0,.7,1.25,3.74,3.74,0,0,0,1,.79,3.21,3.21,0,0,0,2.37.34c1.36-.45,2.73-.84,4.1-1.19Z"/><path class="cls-1" d="M99.9,31.89l.15-1.24.2-.24,3.37-.31.24.2.39,1.2,0,1.15c1.6-.13,3.2-.21,4.8-.22l-.78-1.29L104.34,20.3l.2-1.36-7,.63.44,1.3L96.16,32.23l-.65,1.63.31,0c1.45-.3,2.91-.54,4.36-.74Zm1.2-9.06.22,0,1.42,4.12-.19.25-1.81.16-.24-.2Z"/><path class="cls-1" d="M115.12,31.41l.29-3.66.25-.43,1.06-.92.33,0,1.36,5,.07,1.58c.94.13,5,.6,5,.6l-1-2-2.27-8L124.41,20l-.36-.43-4.25-.33-.53,1.19-3.18,2.77-.36.42.24-3.12.62-1.51-4.81-.38.38,1.6-.85,10.89-.55,1.34c1.56,0,3.11.11,4.67.24Z"/><polygon class="cls-1" points="135.89 32.82 133.81 32.98 130.43 32.09 130.2 31.69 130.67 29.85 130.94 29.69 132.21 30.02 133.46 30.86 134.52 26.78 133.02 26.9 131.75 26.57 131.6 26.3 131.94 25 132.2 24.84 135.48 25.69 137.07 26.73 136.83 22.7 128.62 20.57 128.71 22.2 125.96 32.77 125.2 33.97 133.61 36.38 135.89 32.82"/></g></svg>