<?xml version="1.0" encoding="utf-8"?>
<!-- Generator: Adobe Illustrator 24.1.0, SVG Export Plug-In . SVG Version: 6.00 Build 0)  -->
<svg version="1.1" id="Layer_1" xmlns="http://www.w3.org/2000/svg" xmlns:xlink="http://www.w3.org/1999/xlink" x="0px" y="0px"
	 viewBox="0 0 216 112.6" style="enable-background:new 0 0 216 112.6;" xml:space="preserve">
<style type="text/css">
	.st0{fill:#FFFFFF;}
</style>
<g>
	<path class="st0" d="M80.2,99.8c-2,0.2-4.1,0.2-6-0.3C63.4,96.7,61,84.7,59.1,79.9c-2.6-6.6-5-12.6-7.1-18c2.8-2.5,4.7-4,5.6-4.6
		c0.9-0.6,1.8-1.2,2.8-1.8c1.9,1.5,4.2,2.9,6.7,4.2c2.4,1.3,5,1.9,7.8,2c3.6,0.1,7.1-1.3,9.5-3.9c2.4-2.6,3.6-5.6,3.6-8.9
		c0-3.6-1-6.4-3-8.3c-2-1.9-4.7-2.8-8.1-2.8c-3.4,0-6.4,0.8-9.2,2.5c-2.8,1.7-6.5,4.8-11.1,9.3c-3.8,3.7-7.4,7.3-10.7,10.7
		s-7.8,8.3-13.5,14.6h-0.6l16.6-72c0.3-1.5-0.8-2.8-2.3-2.8L10.8,1.7L9.5,7c1.9,0.2,3.6,0.4,5.1,0.6c1.5,0.2,2.8,0.7,3.9,1.3
		c1.1,0.6,2,1.4,2.6,2.4c0.6,1,0.9,2.3,0.9,4c0,0.5,0,1.1-0.1,1.8c-0.1,0.7-0.2,1.5-0.4,2.3L0,112.2h23.4l6.7-29.4l4.8-4.5
		c1.6,4.3,2.8,7.6,3.6,10.1c0.9,2.5,1.8,6.4,4.4,10.8c14.7,24.7,49.3,8.8,49.3-4.5c-0.3,0.3-0.7,0.6-1,0.8
		C89.5,96.7,86.6,99.1,80.2,99.8z"/>
	<path class="st0" d="M212.4,42.7c-2.4-3.2-5.9-4.8-10.5-4.8c-1.3,0-2.7,0.2-4.4,0.7c-1.6,0.5-3,1.1-4.1,1.9c-1.5,1-2.7,2.4-3.6,4
		c-0.9,1.6-1.4,3.6-1.4,6c0,2.9,0.5,5.2,1.6,7.2c1,2,2.3,3.6,3.6,5c1.2,1.2,2.6,2.3,4,3.5l0.1,0c1.9,1.5,3.2,3.8,3.4,6.3l0,0.2
		c0.1,1,0.1,1.8,0.1,2.6c0,8-6.3,14.5-10.9,19.3c-0.7,0.7-1.3,1.3-1.8,1.8c-0.1,0.1-0.2,0.2-0.3,0.2c-1.9,1.4-3.5,2.3-4.9,3
		c-0.7,0.4-1.5,0.6-2.2,0.8c-0.5,0.1-1,0.3-1.5,0.4c-1.2,0.2-2.1,0.2-2.7,0.2c-2,0-3.7-0.8-5.2-2.3c-1.5-1.5-2.2-3.7-2.2-6.4
		c0-0.9,1.3-11.2,1.4-11.7l8.8-38.2c0.4-1.7-1-3.3-2.7-3.3l-8.6,0.4c-6.9,0.3-12.6,5.1-14.2,11.8l-6.8,29.8c-0.4,2.3-0.7,4.2-1,5.9
		c-0.1,0.4-0.1,0.7-0.1,1c-0.2,1.8-0.5,5.2,0.4,8.9c-1.8,1.2-4.6,2.5-9.1,3c-2,0.2-4.1,0.2-6-0.3c-0.5-0.1-0.9-0.3-1.4-0.5
		c-0.4-0.3-0.8-0.6-1.2-1c-1.5-1.5-2.2-3.7-2.2-6.4c0-0.9,0.2-2.5,0.5-4.7c0.4-2.2,0.8-4,1.2-5.5l4.1-13.8c0.6-1.8,1.1-4.2,1.6-7.1
		c0.5-2.9,0.7-5.2,0.7-6.7c0-4.3-1.5-8-4.6-10.7c-3.5-3.1-8.2-4-13-4.2c-11-0.6-21.5,8-22.5,12.1c1.1-0.4,2.5-0.9,4.1-1.3
		c1.6-0.5,3.1-0.7,4.6-0.7c3.1,0,5.1,0.6,6.2,1.7c1.1,1.1,1.6,2.9,1.6,5.4c0,1.1-0.2,2.8-0.7,5.1c-0.4,2.3-0.8,4.1-1.2,5.4
		l-4.8,16.8c-0.5,2-1,3.8-1.3,5.5c-0.4,1.7-0.6,3.5-0.6,5.4c0,0.9,0.1,1.8,0.2,2.6c0.5,4,1.9,7.4,4.5,10.2c1.1,1.2,2.3,2.1,3.6,2.9
		c1.4,0.8,3,1.4,4.7,1.8c12.6,3.3,27-3.6,32-11.5c0,0.1,0,0.1,0.1,0.2c0.6,1.3,3.5,5.4,7.4,7.7c4,3.9,16.4,4,16.8,4
		c7.5,0,10.2-1.7,16-5c5.8-3.3,10.8-7.7,15-13.1c4.1-5.2,7.2-11.2,9.5-18c2.3-6.8,3.4-13.6,3.4-20.5C216,50.2,214.8,45.9,212.4,42.7
		z"/>
</g>
</svg>
