<svg id="Layer_1" data-name="Layer 1" xmlns="http://www.w3.org/2000/svg" viewBox="0 0 216 165.39"><defs><style>.cls-1{fill:#fcb539;}</style></defs><path class="cls-1" d="M199.2,0H16.8A16.85,16.85,0,0,0,0,16.8V148.59a16.85,16.85,0,0,0,16.8,16.8H199.2a16.85,16.85,0,0,0,16.8-16.8V16.8A16.85,16.85,0,0,0,199.2,0ZM75.8,109.22a4.18,4.18,0,0,1-.86,2.33l-21.3,24.68a3.33,3.33,0,0,1-2.19,1H38.4a1.32,1.32,0,0,1-1.32-1.32V46.48a1.34,1.34,0,0,0-1.33-1.33h-9a1.33,1.33,0,0,1-1.33-1.32V29.49a1.34,1.34,0,0,1,1.33-1.33H54.22a1.33,1.33,0,0,1,1.32,1.33v76.27c0,.73.39.87.87.32L74.94,84.6c.47-.55.86-.41.86.32Zm114.78,13.29v13.41a1.34,1.34,0,0,1-1.33,1.33H161.79a1.33,1.33,0,0,1-1.32-1.33V59.57c0-.73-.39-.87-.87-.32l-19.41,22.5a4.12,4.12,0,0,0-.87,2.33v51.84a1.33,1.33,0,0,1-1.32,1.33H122.17a1.33,1.33,0,0,1-1.32-1.33V59.68c0-.73-.4-.88-.88-.33L100.58,81.41a4,4,0,0,0-.88,2.32v52.19a1.33,1.33,0,0,1-1.32,1.33H82.56a1.33,1.33,0,0,1-1.32-1.33V29.49a1.33,1.33,0,0,1,1.32-1.33H98.38a1.33,1.33,0,0,1,1.32,1.33V54.06c0,.73.39.88.88.33l22.2-25.25a3.28,3.28,0,0,1,2.19-1l13,0a1.34,1.34,0,0,1,1.33,1.33l0,25c0,.73.39.88.87.33l22.2-25.69a3.34,3.34,0,0,1,2.2-1l13,0a1.33,1.33,0,0,1,1.32,1.33v89.44a1.33,1.33,0,0,0,1.32,1.32h9a1.34,1.34,0,0,1,1.33,1.33Z"/></svg>