<?xml version="1.0" encoding="utf-8"?>
<!-- Generator: Adobe Illustrator 24.0.3, SVG Export Plug-In . SVG Version: 6.00 Build 0)  -->
<svg version="1.1" xmlns="http://www.w3.org/2000/svg" xmlns:xlink="http://www.w3.org/1999/xlink" x="0px" y="0px"
	 viewBox="0 0 100 26.57" style="enable-background:new 0 0 100 26.57;" xml:space="preserve">
<style type="text/css">
	.st0{fill:#FF5C35;}
	.st1{fill:#1D252C;}
	.st2{fill:#F5A800;}
	.st3{fill:none;}
	.st4{fill:none;stroke:#ED1C24;stroke-miterlimit:10;}
	.st5{fill:#FFFFFF;}
	.st6{fill:#F6893E;}
	.st7{fill:#00BBB4;}
	.st8{fill:#5887DA;}
	.st9{fill:#C2D500;}
	.st10{opacity:0.2;}
	.st11{fill:url(#SVGID_1_);}
	.st12{fill:url(#SVGID_2_);}
	.st13{fill:url(#SVGID_3_);}
	.st14{fill:#00AE8D;}
	.st15{fill:#E74F3D;}
	.st16{fill:#EA0029;}
	.st17{fill:#595378;}
	.st18{fill:#0047BA;}
	.st19{fill:#6ABF4B;}
	.st20{fill:#B9BB17;}
</style>
<g id="Layer_1">
	<g>
		<path class="st5" d="M19.08,0.37v16.45c0,6.3-3.82,9.75-9.82,9.75c-2.67,0-5.04-0.78-6.26-1.48v-4.26
			c1.48,1.04,3.96,1.93,6.26,1.93c3.34,0,5.74-2.15,5.74-5.45v-2.11c-1.3,1.93-3.48,3.26-6.3,3.26C3.67,18.45,0,14.49,0,9.26
			S3.67,0,8.67,0c2.85,0,5.04,1.33,6.34,3.34V0.37H19.08z M9.56,4c-3,0-5.22,2.3-5.22,5.22c0,2.96,2.22,5.26,5.22,5.26
			c3,0,5.22-2.3,5.22-5.26C14.79,6.3,12.56,4,9.56,4z"/>
		<path class="st5" d="M25.63,2.59C26.48,1.07,27.97,0,30.12,0c0.48,0,1.07,0.04,1.52,0.11v4.34c-0.67-0.3-1.52-0.48-2.45-0.48
			c-2.22,0-3.48,1.56-3.56,3.89V18.6h-4.08V0.37h4.08V2.59z"/>
		<path class="st5" d="M41.37,0c5.34,0,9.49,4.11,9.49,9.49c0,5.34-4.15,9.52-9.49,9.52c-5.37,0-9.49-4.19-9.49-9.52
			C31.88,4.11,36,0,41.37,0z M41.37,15.01c3.08,0,5.34-2.48,5.34-5.52s-2.26-5.52-5.34-5.52C38.33,3.97,36,6.45,36,9.49
			S38.33,15.01,41.37,15.01z"/>
		<path class="st5" d="M61.78,0c5.34,0,9.49,4.11,9.49,9.49c0,5.34-4.15,9.52-9.49,9.52c-5.37,0-9.49-4.19-9.49-9.52
			C52.3,4.11,56.41,0,61.78,0z M61.78,15.01c3.08,0,5.34-2.48,5.34-5.52s-2.26-5.52-5.34-5.52c-3.04,0-5.37,2.48-5.37,5.52
			S58.74,15.01,61.78,15.01z"/>
		<path class="st5" d="M77.58,2.7C78.54,1.07,80.14,0,82.4,0c2.67,0,4.78,1.26,5.74,3.52C89.03,1.45,90.85,0,93.63,0
			C97.22,0,100,2.7,100,6.74V18.6h-4.08V7.86c0-2.48-1.45-3.89-3.52-3.89c-2.11,0-3.63,1.41-3.63,3.89V18.6H84.7V7.86
			c0-2.48-1.45-3.89-3.52-3.89c-2.08,0-3.52,1.3-3.59,3.63V18.6H73.5V0.37h4.08V2.7z"/>
		<path class="st5" d="M61.76,22.75c-2.3,0-4.78-0.89-6.26-1.93v4.26c1.22,0.7,3.59,1.48,6.26,1.48c2.67,0,5.04-0.78,6.26-1.48
			v-4.26C66.54,21.86,64.06,22.75,61.76,22.75z"/>
	</g>
</g>
<g id="Layer_2">
</g>
</svg>
