<?xml version="1.0" encoding="utf-8"?>
<!-- Generator: Adobe Illustrator 24.1.1, SVG Export Plug-In . SVG Version: 6.00 Build 0)  -->
<svg version="1.1" id="Layer_1" xmlns="http://www.w3.org/2000/svg" xmlns:xlink="http://www.w3.org/1999/xlink" x="0px" y="0px"
	 viewBox="0 0 216.7 222.89" style="enable-background:new 0 0 216.7 222.89;" xml:space="preserve">
<style type="text/css">
	.st0{fill:#FFFFFF;}
</style>
<path class="st0" d="M215.71,57.51c-0.67-4.62-1.66-8.98-2.98-13.09c-3.25-10.19-8.48-18.83-15.82-25.81
	c-3.35-3.18-6.99-5.93-10.91-8.3c-7.76-4.69-16.66-7.75-26.66-9.23c-4.72-0.7-9.66-1.09-14.88-1.08L132.7,0.04l-26.63,0.08
	l-1.81,0.01h-0.79V0.08H77.61v0.04H51.74H25.87H0v222.77l25.87-19.87l0.9-0.69l24.97-19.18l1.6-1.23l24.27-18.64l2.3-1.77
	l23.57-18.1l0.13-0.1h0l2.88-0.01l26.63-0.08l11.76-0.03c5.22-0.02,10.15-0.44,14.87-1.16c9.99-1.54,18.87-4.66,26.6-9.39
	c3.9-2.39,7.53-5.16,10.86-8.36c7.3-7.02,12.47-15.7,15.67-25.91c2.52-8.03,3.84-16.99,3.81-26.99
	C216.68,66.51,216.34,61.9,215.71,57.51z"/>
</svg>
