<svg id="Layer_2" data-name="Layer 2" xmlns="http://www.w3.org/2000/svg" viewBox="0 0 113.74 113.56"><defs><style>.cls-1{fill:#fff;}</style></defs><title>K_Faux_logo</title><path class="cls-1" d="M80,33.92c2.24-12.67-1.47-16.47-2.66-17.34A4,4,0,0,0,75,15.8a5.48,5.48,0,0,0-2.55.69c-3.32,1.76-7.07,7.14-6.75,16.5V67.3A74.89,74.89,0,0,0,80,33.92Z"/><path class="cls-1" d="M17.28,71.24A59.74,59.74,0,0,0,29.21,61.5V29.68C28.88,20.4,33,14.82,36.66,12.89a7.23,7.23,0,0,1,7.9.35c2.24,1.62,5.69,6.1,3.62,17.78A66.67,66.67,0,0,1,40.69,52.4a13.4,13.4,0,0,1,2.81.09c3.74.51,6.36,2.72,7.18,6.06a10.92,10.92,0,0,1-4.3,11,10.17,10.17,0,0,1-8.05,1.64c2.27,3.69,6.1,8.25,11.22,8.26h0c5.12,0,10.23-5.07,12.1-7.41v-39c-.24-6.94,1.94-16.42,8.87-20.1a8.38,8.38,0,0,1,9.16.39c2.65,1.92,6.73,7.25,4.25,21.26C81.25,49.86,75.1,63,65.66,73.55v5.83c7.87-.17,37.34-2.21,47.74-22.3,0-.1,0-.21,0-.31A56.59,56.59,0,1,0,4.19,77.53,66.93,66.93,0,0,0,17.28,71.24Z"/><path class="cls-1" d="M33.47,56.38A61.3,61.3,0,0,0,44.24,30.33c1.43-8.09-.11-12.46-2-13.86a2.93,2.93,0,0,0-1.75-.58,4.17,4.17,0,0,0-1.91.53c-2.83,1.5-5.58,6.17-5.34,13.2V56.73Z"/><path class="cls-1" d="M65.62,112.67A56.22,56.22,0,0,0,76,110,60.3,60.3,0,0,0,65.66,87Z"/><path class="cls-1" d="M35.19,65.62c3.34,2.15,6.49,2.4,8.86.7a6.86,6.86,0,0,0,2.75-6.81c-.42-1.71-1.75-2.77-3.85-3.06a6.39,6.39,0,0,0-5.69,1.68c-1.66,1.63-2.73,4.24-3.4,7.18h.25A2,2,0,0,1,35.19,65.62Z"/><path class="cls-1" d="M67.89,83.29A63.74,63.74,0,0,1,79.76,108.5a56.63,56.63,0,0,0,33-43.28C100.35,80.07,77.4,82.81,67.89,83.29Z"/><path class="cls-1" d="M61.62,103.8l0-6.9V81.58a2.54,2.54,0,0,1,0-.39V77.86c-2.84,2.6-7.2,5.62-12.1,5.62h0c-8.81,0-14.25-9-16.33-13.28V82a2,2,0,0,1-4,.23,65.5,65.5,0,0,1,0-13.15V67A69.18,69.18,0,0,1,5.76,81.16a56.59,56.59,0,0,0,51.07,32.2c1.61,0,3.21-.09,4.79-.22Z"/></svg>