<svg id="Layer_1" data-name="Layer 1" xmlns="http://www.w3.org/2000/svg" viewBox="0 0 267.25 360.07"><defs><style>.cls-1{fill:#fff;}</style></defs><title>J_Baker_Logo</title><path class="cls-1" d="M223.84,197.84c-7.76,5.38-18.2,8-31.25,8H149.34V34.25H138.25V25.42H195v8.83H180.63V157.92c0,18.07,1,29.78,2.8,35.2a11,11,0,0,0,6.2,7,17.1,17.1,0,0,0,6.28,1.11c3.62,0,6.49-.74,8.71-2.47a16.73,16.73,0,0,0,1.44-1.23,7,7,0,0,0,1.8-4.64,14.07,14.07,0,0,0-2.22-7.35h-9.48a47.12,47.12,0,0,1-2.63-15.36,18.75,18.75,0,0,1,4.93-13c3.37-3.66,8.38-5.42,15.15-5.42s12,2.09,15.94,6.32a21.5,21.5,0,0,1,5.34,11.42,34.12,34.12,0,0,1,.49,5.95c0,9.66-3.82,17.05-11.54,22.39M201.5,111.26v-1.19q53.9-9.48,54-54.91,0-29.94-23.36-42.55T162,0H53.6V25.1H80.38V282.61q0,43.74-4.11,56.84c-2.75,8.79-8.87,13.15-18.4,13.15q-7.83,0-12.65-4A11.93,11.93,0,0,1,40.37,339a26.23,26.23,0,0,1,3.25-11.87H57.54a83.11,83.11,0,0,0,3.9-24.76,31.65,31.65,0,0,0-7.31-21c-4.88-5.84-12.23-8.75-22.13-8.75S14.29,276,8.58,282.82,0,299,0,311c0,15.52,5.67,27.64,17,36.22s26.61,12.9,45.87,12.9q43.56,0,65.39-25.59T150,252.63V235.5h10.23a266.1,266.1,0,0,0,40.91-2.87h.33v-.09c15.15-2.38,28-6.24,38.15-11.66q27.6-14.67,27.6-51.3,0-49.53-65.75-58.32"/></svg>